<svg width="346" height="242" viewBox="0 0 346 242" fill="none" xmlns="http://www.w3.org/2000/svg">
<path d="M48.773 157.513C20.0756 185.737 32.4676 225.598 42.2508 242L345.996 239.215C346.369 184.994 318.2 134.921 304.068 116.662C245.183 29.7603 172.383 28.1511 143.344 38.2091C104.211 58.2632 116.79 79.3696 127.97 87.416C137.288 93.7293 142.102 100.878 143.344 103.664C144.835 120.375 122.846 126.41 111.665 127.339C77.3773 132.909 55.4504 149.776 48.773 157.513Z" fill="#F0F1FF"/>
<ellipse cx="209.643" cy="60.1725" rx="13.2504" ry="13.7181" fill="#FBA17F"/>
<path d="M181.428 102.886C162.098 101.015 151.809 81.9967 147.445 72.6434C145.2 79.6272 139.027 73.6827 136.221 69.8375L144.639 58.3018L150.251 52.6899C158.232 48.6992 165.839 26.8126 168.022 19.0182C172.012 28.4962 197.121 44.8955 209.799 49.2604C216.284 55.4959 217.074 67.9668 215.1 74.5141C206.637 102.574 189.95 102.782 181.428 102.886Z" fill="#FBA17F"/>
<circle cx="165.876" cy="62.9413" r="3.31321" fill="#0B2D50"/>
<circle cx="191.057" cy="62.9413" r="3.31321" fill="#0B2D50"/>
<path d="M170.517 58.0289C168.023 54.5364 162.41 56.5737 159.915 58.0289C162.41 52.0416 168.023 52.6239 170.517 53.6634V58.0289Z" fill="#0B2D50"/>
<path d="M187.744 58.0288C190.239 54.5362 195.852 56.5735 198.347 58.0288C195.852 52.0415 190.239 52.6237 187.744 53.6633V58.0288Z" fill="#0B2D50"/>
<path d="M175.815 75.9221L182.686 75.6405C181.223 77.6569 178.452 77.6482 177.249 77.3918L175.815 75.9221Z" fill="#E6775C"/>
<path d="M217.273 28.7797C202.308 -1.89891 178.406 -2.08597 168.325 1.65532C130.6 -5.51549 129.985 63.8211 129.985 68.5904C129.985 77.6318 124.955 85.738 123.118 97.6818C120.623 113.894 134.134 116.077 141.2 115.141C144.443 109.405 159.803 108.386 167.078 108.594C173.812 106.848 173.625 102.255 172.69 100.176C158.972 94.4394 150.554 79.2871 148.06 72.4281C145.565 76.1694 139.746 72.532 137.147 70.2457L151.177 52.7863C158.41 48.0473 165.623 31.2739 168.325 23.4795C172.316 34.2046 200.542 47.4862 214.156 52.7863L222.262 62.1396C222.012 67.1279 216.754 71.0771 214.156 72.4281C214.156 82.4049 202.516 95.0837 196.696 100.176V107.347L202.308 110.776C217.273 109.529 228.497 117.947 232.239 122.312L240.657 118.571C254.071 108.594 254.383 91.6617 244.095 81.9967C239.337 77.5275 236.3 77.3201 232.239 68.5904L224.444 48.4215L217.273 28.7797Z" fill="#0B2D50"/>
<path d="M215.411 68.0529C217.905 52.0901 203.771 46.0209 196.393 44.9816L205.434 40.6168C206.473 38.4343 209.924 35.379 215.411 40.6168C220.898 45.8546 217.697 61.09 215.411 68.0529Z" fill="#0B2D50"/>
<path d="M148.253 70.7728C145.51 56.8053 151.267 45.4151 154.489 41.466L146.071 44.272C142.08 59.2371 145.863 68.1747 148.253 70.7728Z" fill="#0B2D50"/>
<path d="M181 87.5443C176.721 88.5317 173.869 85.4873 172.978 83.8416C177.832 86.3924 184.326 84.9044 186.966 83.8416C185.814 85.981 182.509 87.2015 181 87.5443Z" fill="white"/>
<path d="M182.337 87.75C177.153 88.8197 174.143 85.8644 173.286 84.253L170.509 83.1216C180.136 95.3818 187 87.6815 189.228 82.2988L186.862 84.253C186.287 85.405 183.605 87.0643 182.337 87.75Z" fill="#8E1D19"/>
<path d="M169.893 82.1959C174.11 83.6016 184.004 85.405 189.846 81.3731C187.446 84.7673 180.096 89.6837 169.893 82.1959Z" fill="#F6565E"/>
<path d="M180.692 89.3961C177.092 89.5295 171.984 85.1106 170.201 82.4021C172.094 89.8898 177.504 91.8303 179.972 91.8646C187.131 92.5229 189.263 85.282 189.435 81.5793C186.884 87.7505 183.572 89.2895 180.692 89.3961Z" fill="#FF6F75"/>
<path d="M137.779 116.761C148.255 106.285 163.345 107.2 169.58 108.966C189.035 120.44 198.471 113.747 200.758 108.966L211.046 110.525C231.499 110.525 243.055 137.338 246.277 150.744L253.136 189.404H269.66C265.669 204.868 273.609 210.397 278.078 211.228L260.307 218.088C250.579 223.575 239.21 221.829 234.741 220.27L246.277 239H131.5L142.612 201.719C147.725 186.754 146.509 171.373 145.262 165.554L126.711 192.678C120.975 201.158 112.37 202.863 108.784 202.655C97.1862 202.655 86.1806 185.403 82.1275 176.777C75.3932 165.928 66.3309 134.116 62.6416 119.567C72.2443 119.692 82.4393 113.591 86.3365 110.525L109.72 156.98C111.964 144.01 129.361 124.763 137.779 116.761Z" fill="#8370F0"/>
<path d="M166.774 108.809C173.945 106.471 172.698 100.703 171.139 98.8325C181.864 104.569 192.86 101.223 197.017 98.8325C195.769 103.571 199.615 108.082 201.693 109.745C190.002 124.086 173.322 114.213 166.774 108.809Z" fill="#FBA17F"/>
<path d="M186.727 121.28C171.606 120.813 165.579 112.187 162.721 107.718L168.333 108.186C172.074 113.798 177.01 115.201 181.427 115.98C195.145 118.35 200.445 112.083 201.381 108.653L206.681 110.056C200.29 120.813 191.716 121.28 186.727 121.28Z" fill="#9C89FF"/>
<path d="M233.494 146.846L229.129 119.41C247.088 128.888 253.344 168.826 254.383 188.779H275.428C270.938 198.257 267.166 204.68 277.766 211.695L257.657 219.489L246.901 222.451C229.441 223.948 227.882 212.526 229.129 207.33L233.494 176.153C234.741 168.826 235.521 159.473 233.494 146.846Z" fill="#8370F0"/>
<path d="M224.764 183.958L179.557 191.753H222.27L224.764 183.958Z" fill="#504B4B"/>
<path d="M274.96 189.559C278.909 193.716 285.062 203.9 278.078 211.383C273.245 210.24 265.856 204.275 274.96 189.559Z" fill="#5D49C4"/>
<path d="M62.4863 119.41C67.6306 115.772 79.5404 108.872 86.0253 110.368C83.0634 113.954 74.209 120.781 62.4863 119.41Z" fill="#5D49C3"/>
<path d="M82.1279 111.771C78.0752 106.705 77.0356 102.47 76.6719 98.8325C76.6719 108.435 68.202 115.253 64.5127 117.539L67.6304 119.41L75.2689 117.071L82.9074 113.018C82.9074 113.018 82.7515 112.551 82.1279 111.771Z" fill="#F8A38E"/>
<path d="M66.565 64.6589C61.4519 63.7859 60.0697 67.8286 60.0177 69.959C59.3942 73.4509 60.9011 80.8711 61.7325 84.1448L55.8088 81.3388C50.571 79.094 47.7026 81.027 46.9232 82.2741C44.5537 84.6436 46.2477 87.5223 47.3909 88.6655C47.0271 88.7174 46.175 89.1331 45.6761 90.3802C45.1773 91.6273 45.884 94.0176 46.2997 95.0569C45.302 95.0569 44.3251 95.8883 43.9614 96.304C42.7143 98.0499 43.4417 101.084 43.9614 102.384C43.8055 102.02 43.4002 101.947 43.026 104.566C42.6519 107.185 46.4036 111.061 48.3262 112.672C51.4439 116.039 60.7452 117.401 65.0061 117.66C72.2393 116.039 75.7104 108.255 76.5418 104.566C76.8853 103.041 76.6803 99.1443 76.5418 96.304C76.3533 92.4411 71.8652 85.9634 69.6827 83.6771C66.6897 78.564 66.3571 68.8678 66.565 64.6589Z" fill="#FFAE96"/>
<path d="M51.723 81.4117C51.4514 81.3927 51.1927 81.38 50.9502 81.3731C51.2077 81.3731 51.4656 81.3864 51.723 81.4117C55.5252 81.6776 61.8623 83.1856 61.8623 87.6086C63.1094 92.4411 63.7329 103.291 56.2503 108.03C54.6915 108.861 50.6072 110.368 46.7412 109.745C49.5472 109.9 55.3774 109.246 56.2503 105.38L55.7827 104.6C56.6141 104.081 58.308 102.387 58.4328 99.7678C58.3288 99.0403 57.9339 97.523 57.1857 97.2736C58.1729 97.1177 60.1787 96.2447 60.3034 93.9999C60.5112 93.4284 60.6775 92.0358 59.6798 91.0381L59.0563 90.2586C60.1475 89.3468 61.6752 86.979 59.0563 84.8026C57.8566 83.7468 54.831 81.7161 51.723 81.4117Z" fill="#F8A38E"/>
<circle cx="192.963" cy="140.922" r="3.74129" fill="#9C89FF"/>
<circle cx="193.587" cy="169.294" r="3.74129" fill="#9C89FF"/>
<circle cx="193.587" cy="207.018" r="3.74129" fill="#9C89FF"/>
<path d="M179.589 195.65C178.592 192.158 180.005 191.493 180.836 191.597H222.302L245.062 121.604C245.685 118.236 248.439 117.187 249.738 117.083L342.959 110.692C345.952 110.816 346.181 113.757 345.921 115.212C345.796 112.593 343.894 112.25 342.959 112.406L251.297 118.486C249.551 118.486 248.699 119.525 248.491 120.045L225.108 191.597C223.736 193.592 225.68 195.754 226.823 196.585H180.836L179.589 195.65Z" fill="#C4C4C4"/>
<path d="M319.544 190.727L227.259 196.807C223.642 196.059 224.193 192.962 224.921 191.507L247.524 121.513C248.397 119.144 250.59 118.551 251.577 118.551L340.901 112.316C339.55 112.524 337.814 112.815 341.68 112.316C345.546 111.817 345.681 114.29 345.266 115.59L321.882 188.389C321.384 190.135 320.116 190.675 319.544 190.727Z" fill="#E9E9E9"/>
<ellipse cx="290.081" cy="154.652" rx="6.39138" ry="5.92371" transform="rotate(29.5601 290.081 154.652)" fill="#C4C4C4"/>
<path d="M279.902 193.239H272.934C268.413 198.539 270.364 204.619 272.131 207.113L274.781 205.242C275.529 204.245 278.003 204.307 279.146 204.463L282.887 203.683L289.123 203.06C294.61 203.434 296.397 202.488 296.605 201.969H298.008C303.62 201.719 305.127 194.694 305.179 191.212L307.517 177.494L308.141 174.688L308.92 171.571C308.546 169.077 305.751 170.947 304.4 172.194C305.148 168.578 303.568 167.777 302.685 167.829C300.814 167.081 298.788 170.947 298.008 172.974L297.54 172.194C295.919 169.575 293.228 172.766 292.084 174.688L290.993 180.456L290.37 179.833C288.624 179.833 287.148 182.847 286.628 184.353L279.902 193.239Z" fill="#FBB099"/>
<path d="M278.243 200.939C274.002 197.821 277.619 194.547 279.957 193.3H272.934C268.569 198.756 270.396 204.264 272.163 207.486L276.216 204.368H278.243L285.102 203.745L287.128 203.277H289.155C293.27 204.121 295.754 203.109 296.481 202.498C301.969 201.999 302.301 200.523 301.781 199.847C301.283 200.596 298.04 200.887 296.481 200.939L292.896 201.718H289.622H287.128C282.264 202.965 279.178 201.718 278.243 200.939Z" fill="#FCA28A"/>
<path d="M285.561 196.886C287.159 194.168 289.397 189.028 290.516 184.927C290.813 183.649 291.038 182.499 291.172 181.609C291.086 182.559 290.851 183.696 290.516 184.927C289.547 189.095 287.818 194.619 286.028 196.886H285.561Z" fill="#FCA28A"/>
<path d="M285.561 196.886C287.639 193.352 290.798 185.724 291.172 181.609C290.601 185.402 288.367 193.924 286.028 196.886H285.561Z" stroke="#FCA28A"/>
<path d="M292.108 196.106C293.707 192.446 295.945 185.522 297.063 179.998C297.361 178.277 297.586 176.728 297.72 175.529C297.634 176.809 297.399 178.341 297.063 179.998C296.094 185.613 294.366 193.053 292.576 196.106H292.108Z" fill="#FCA28A"/>
<path d="M292.108 196.106C294.187 191.347 297.346 181.072 297.72 175.529C297.149 180.638 294.914 192.117 292.576 196.106H292.108Z" stroke="#FCA28A"/>
<path d="M298.343 196.106C299.941 192.446 302.179 185.522 303.298 179.998C303.595 178.277 303.821 176.728 303.955 175.529C303.868 176.809 303.634 178.341 303.298 179.998C302.329 185.613 300.6 193.053 298.81 196.106H298.343Z" fill="#FCA28A"/>
<path d="M298.343 196.106C300.421 191.347 303.581 181.072 303.955 175.529C303.383 180.638 301.149 192.117 298.81 196.106H298.343Z" stroke="#FCA28A"/>
<path d="M64.5 25L69.4198 33.7285L79.2414 35.7102L72.4603 43.0865L73.6107 53.0398L64.5 48.87L55.3893 53.0398L56.5397 43.0865L49.7586 35.7102L59.5802 33.7285L64.5 25Z" fill="#FED230"/>
<path d="M27 46L29.8566 51.0682L35.5595 52.2188L31.6221 56.5018L32.2901 62.2812L27 59.86L21.7099 62.2812L22.3779 56.5018L18.4405 52.2188L24.1434 51.0682L27 46Z" fill="#FED230"/>
<path d="M11 76L13.2218 79.9419L17.6574 80.8369L14.595 84.1681L15.1145 88.6631L11 86.78L6.8855 88.6631L7.40501 84.1681L4.3426 80.8369L8.77817 79.9419L11 76Z" fill="#FED230"/>
<path d="M5.5 102L7.24572 105.097L10.7308 105.8L8.32464 108.418L8.73282 111.95L5.5 110.47L2.26718 111.95L2.67536 108.418L0.269189 105.8L3.75428 105.097L5.5 102Z" fill="#FED230"/>
</svg>
