<svg width="62" height="62" viewBox="0 0 62 62" fill="none" xmlns="http://www.w3.org/2000/svg">
<path d="M3.99412 56.0098L5.49117 54.0137V17.5853C5.49117 13.9924 9.81601 13.0942 11.9784 13.0942L57.8882 14.0922C60.2835 8.50317 56.8902 6.10787 54.8941 5.60885H18.9647L14.4735 1.11768H6.98823C2.59686 0.319244 1.16634 3.77911 1 5.60885V53.0157L1.49902 56.5088L3.99412 56.0098Z" fill="#BBB0FD"/>
<rect x="5.99023" y="14.0922" width="54.8921" height="46.9078" rx="1" fill="white"/>
<rect x="20" y="28" width="26" height="19" rx="1" fill="#BBB0FD"/>
<path d="M5.56655 61H55.7867C57.4259 61 60.7342 60.136 60.8534 56.6801V18.0992C61.0521 16.6593 60.3169 13.7794 55.7867 13.7794H11.0803C9.24241 13.6304 5.56655 14.2858 5.56655 18.0992V54.5947C4.67243 56.0346 2.52652 58.0506 1.09592 54.5947V5.88443C0.748201 4.39482 1.15553 1.35601 5.56655 1.11768H14.2098L18.8294 5.88443H54.7435C56.1344 5.93408 58.8862 6.10787 58.3872 13.7794" stroke="#5C5E7A" stroke-width="2"/>
<path d="M8.66406 9.43109H54.7773" stroke="#5C5E7A" stroke-width="2"/>
<path d="M19.7051 46.7113V28.0062H46.0741V46.7113H19.7051Z" stroke="#5C5E7A" stroke-width="2"/>
<path d="M27.291 33.8516H38.2023" stroke="#5C5E7A" stroke-width="2"/>
<path d="M23 34H26" stroke="#5C5E7A" stroke-width="2"/>
<path d="M23 38H26" stroke="#5C5E7A" stroke-width="2"/>
<path d="M23 42H26" stroke="#5C5E7A" stroke-width="2"/>
<path d="M27 38H42.9773" stroke="#5C5E7A" stroke-width="2"/>
<path d="M27 42H42.9773" stroke="#5C5E7A" stroke-width="2"/>
<path d="M2.99609 56.0098C2.99609 57.5069 3.79452 60.6008 6.98825 61" stroke="#5C5E7A" stroke-width="2"/>
</svg>
