<svg width="18" height="16" viewBox="0 0 18 16" fill="none" xmlns="http://www.w3.org/2000/svg">
<path fill-rule="evenodd" clip-rule="evenodd" d="M12.7628 7.30432H5.23428C4.88771 7.30432 4.60724 7.58554 4.60724 7.93304C4.60724 8.28055 4.88771 8.56177 5.23428 8.56177H12.7648C13.1114 8.56177 13.3919 8.28055 13.3919 7.93304C13.3899 7.58554 13.1094 7.30432 12.7628 7.30432ZM12.7628 10.7091H5.23428C4.88771 10.7091 4.60724 10.9903 4.60724 11.3378C4.60724 11.6853 4.88771 11.9666 5.23428 11.9666H12.7648C13.1114 11.9666 13.3919 11.6853 13.3919 11.3378C13.3899 10.9903 13.1094 10.7091 12.7628 10.7091ZM16.5556 1.41091H14.2397V0.914761C14.2397 0.567254 13.9593 0.286036 13.6127 0.286036C13.2661 0.286036 12.9856 0.567254 12.9856 0.914761V1.41091H5.01235V0.914761C5.01235 0.567254 4.73189 0.286036 4.38531 0.286036C4.03873 0.286036 3.75826 0.567254 3.75826 0.914761V1.41091H1.4424C0.645075 1.41091 0 2.05771 0 2.85718V14.2666C0 15.0661 0.645075 15.7129 1.4424 15.7129H16.5576C17.3549 15.7129 18 15.0661 18 14.2666V2.85718C17.998 2.05972 17.3529 1.41091 16.5556 1.41091ZM1.44141 2.8571H3.75927V3.18251C3.75927 3.53001 4.03974 3.81123 4.38631 3.81123C4.73289 3.81123 5.01336 3.53001 5.01336 3.18251V2.8571H12.9866V3.18251C12.9866 3.53001 13.2671 3.81123 13.6137 3.81123C13.9603 3.81123 14.2407 3.53001 14.2407 3.18251V2.8571H16.5586V4.82764H1.44141V2.8571ZM1.44141 14.2666V6.07912H16.5566V14.2666C16.5546 14.2666 16.5546 14.2666 16.5546 14.2666H1.44141Z" fill="#B9BFD7"/>
</svg>
