<svg width="454" height="454" viewBox="0 0 454 454" fill="none" xmlns="http://www.w3.org/2000/svg">
<circle cx="227" cy="227" r="227" fill="url(#paint0_linear_7295_1558)"/>
<path d="M205.5 35.925C205.5 38.575 205.058 41.0333 204.175 43.3C203.308 45.55 202.075 47.5 200.475 49.15C198.875 50.8 196.95 52.0917 194.7 53.025C192.45 53.9417 189.95 54.4 187.2 54.4C184.467 54.4 181.975 53.9417 179.725 53.025C177.475 52.0917 175.542 50.8 173.925 49.15C172.325 47.5 171.083 45.55 170.2 43.3C169.317 41.0333 168.875 38.575 168.875 35.925C168.875 33.275 169.317 30.825 170.2 28.575C171.083 26.3083 172.325 24.35 173.925 22.7C175.542 21.05 177.475 19.7667 179.725 18.85C181.975 17.9167 184.467 17.45 187.2 17.45C189.033 17.45 190.758 17.6667 192.375 18.1C193.992 18.5167 195.475 19.1167 196.825 19.9C198.175 20.6667 199.383 21.6083 200.45 22.725C201.533 23.825 202.45 25.0583 203.2 26.425C203.95 27.7917 204.517 29.275 204.9 30.875C205.3 32.475 205.5 34.1583 205.5 35.925ZM198.625 35.925C198.625 33.9417 198.358 32.1667 197.825 30.6C197.292 29.0167 196.533 27.675 195.55 26.575C194.567 25.475 193.367 24.6333 191.95 24.05C190.55 23.4667 188.967 23.175 187.2 23.175C185.433 23.175 183.842 23.4667 182.425 24.05C181.025 24.6333 179.825 25.475 178.825 26.575C177.842 27.675 177.083 29.0167 176.55 30.6C176.017 32.1667 175.75 33.9417 175.75 35.925C175.75 37.9083 176.017 39.6917 176.55 41.275C177.083 42.8417 177.842 44.175 178.825 45.275C179.825 46.3583 181.025 47.1917 182.425 47.775C183.842 48.3583 185.433 48.65 187.2 48.65C188.967 48.65 190.55 48.3583 191.95 47.775C193.367 47.1917 194.567 46.3583 195.55 45.275C196.533 44.175 197.292 42.8417 197.825 41.275C198.358 39.6917 198.625 37.9083 198.625 35.925ZM221.488 27.95C223.388 27.95 225.113 28.2583 226.663 28.875C228.23 29.4917 229.563 30.3667 230.663 31.5C231.78 32.6333 232.638 34.0167 233.238 35.65C233.838 37.2833 234.138 39.1083 234.138 41.125C234.138 43.1583 233.838 44.9917 233.238 46.625C232.638 48.2583 231.78 49.65 230.663 50.8C229.563 51.95 228.23 52.8333 226.663 53.45C225.113 54.0667 223.388 54.375 221.488 54.375C219.571 54.375 217.83 54.0667 216.263 53.45C214.696 52.8333 213.355 51.95 212.238 50.8C211.138 49.65 210.28 48.2583 209.663 46.625C209.063 44.9917 208.763 43.1583 208.763 41.125C208.763 39.1083 209.063 37.2833 209.663 35.65C210.28 34.0167 211.138 32.6333 212.238 31.5C213.355 30.3667 214.696 29.4917 216.263 28.875C217.83 28.2583 219.571 27.95 221.488 27.95ZM221.488 49.625C223.621 49.625 225.196 48.9083 226.213 47.475C227.246 46.0417 227.763 43.9417 227.763 41.175C227.763 38.4083 227.246 36.3 226.213 34.85C225.196 33.4 223.621 32.675 221.488 32.675C219.321 32.675 217.713 33.4083 216.663 34.875C215.63 36.325 215.113 38.425 215.113 41.175C215.113 43.925 215.63 46.025 216.663 47.475C217.713 48.9083 219.321 49.625 221.488 49.625ZM245.024 47.35C245.724 48.2 246.482 48.8 247.299 49.15C248.132 49.5 249.032 49.675 249.999 49.675C250.932 49.675 251.774 49.5 252.524 49.15C253.274 48.8 253.907 48.2667 254.424 47.55C254.957 46.8333 255.365 45.9333 255.649 44.85C255.932 43.75 256.074 42.4583 256.074 40.975C256.074 39.475 255.949 38.2083 255.699 37.175C255.465 36.125 255.124 35.275 254.674 34.625C254.224 33.975 253.674 33.5 253.024 33.2C252.39 32.9 251.665 32.75 250.849 32.75C249.565 32.75 248.474 33.025 247.574 33.575C246.674 34.1083 245.824 34.8667 245.024 35.85V47.35ZM244.699 31.85C245.749 30.6667 246.94 29.7083 248.274 28.975C249.607 28.2417 251.174 27.875 252.974 27.875C254.374 27.875 255.649 28.1667 256.799 28.75C257.965 29.3333 258.965 30.1833 259.799 31.3C260.649 32.4 261.299 33.7667 261.749 35.4C262.215 37.0167 262.449 38.875 262.449 40.975C262.449 42.8917 262.19 44.6667 261.674 46.3C261.157 47.9333 260.415 49.35 259.449 50.55C258.499 51.75 257.34 52.6917 255.974 53.375C254.624 54.0417 253.107 54.375 251.424 54.375C249.99 54.375 248.765 54.1583 247.749 53.725C246.732 53.275 245.824 52.6583 245.024 51.875V62.375H238.849V28.35H242.624C243.424 28.35 243.949 28.725 244.199 29.475L244.699 31.85ZM282.917 33.35C282.75 33.6167 282.575 33.8083 282.392 33.925C282.208 34.025 281.975 34.075 281.692 34.075C281.392 34.075 281.067 33.9917 280.717 33.825C280.383 33.6583 279.992 33.475 279.542 33.275C279.092 33.0583 278.575 32.8667 277.992 32.7C277.425 32.5333 276.75 32.45 275.967 32.45C274.75 32.45 273.792 32.7083 273.092 33.225C272.408 33.7417 272.067 34.4167 272.067 35.25C272.067 35.8 272.242 36.2667 272.592 36.65C272.958 37.0167 273.433 37.3417 274.017 37.625C274.617 37.9083 275.292 38.1667 276.042 38.4C276.792 38.6167 277.55 38.8583 278.317 39.125C279.1 39.3917 279.867 39.7 280.617 40.05C281.367 40.3833 282.033 40.8167 282.617 41.35C283.217 41.8667 283.692 42.4917 284.042 43.225C284.408 43.9583 284.592 44.8417 284.592 45.875C284.592 47.1083 284.367 48.25 283.917 49.3C283.483 50.3333 282.833 51.2333 281.967 52C281.1 52.75 280.025 53.3417 278.742 53.775C277.475 54.1917 276.008 54.4 274.342 54.4C273.458 54.4 272.592 54.3167 271.742 54.15C270.908 54 270.1 53.7833 269.317 53.5C268.55 53.2167 267.833 52.8833 267.167 52.5C266.517 52.1167 265.942 51.7 265.442 51.25L266.867 48.9C267.05 48.6167 267.267 48.4 267.517 48.25C267.767 48.1 268.083 48.025 268.467 48.025C268.85 48.025 269.208 48.1333 269.542 48.35C269.892 48.5667 270.292 48.8 270.742 49.05C271.192 49.3 271.717 49.5333 272.317 49.75C272.933 49.9667 273.708 50.075 274.642 50.075C275.375 50.075 276 49.9917 276.517 49.825C277.05 49.6417 277.483 49.4083 277.817 49.125C278.167 48.8417 278.417 48.5167 278.567 48.15C278.733 47.7667 278.817 47.375 278.817 46.975C278.817 46.375 278.633 45.8833 278.267 45.5C277.917 45.1167 277.442 44.7833 276.842 44.5C276.258 44.2167 275.583 43.9667 274.817 43.75C274.067 43.5167 273.292 43.2667 272.492 43C271.708 42.7333 270.933 42.425 270.167 42.075C269.417 41.7083 268.742 41.25 268.142 40.7C267.558 40.15 267.083 39.475 266.717 38.675C266.367 37.875 266.192 36.9083 266.192 35.775C266.192 34.725 266.4 33.725 266.817 32.775C267.233 31.825 267.842 31 268.642 30.3C269.458 29.5833 270.467 29.0167 271.667 28.6C272.883 28.1667 274.283 27.95 275.867 27.95C277.633 27.95 279.242 28.2417 280.692 28.825C282.142 29.4083 283.35 30.175 284.317 31.125L282.917 33.35ZM296.139 17.85V32.15C296.139 33.6667 296.064 35.1583 295.914 36.625C295.764 38.075 295.573 39.6167 295.339 41.25H291.139C290.906 39.6167 290.714 38.075 290.564 36.625C290.414 35.1583 290.339 33.6667 290.339 32.15V17.85H296.139ZM289.364 50.6C289.364 50.0833 289.456 49.5917 289.639 49.125C289.839 48.6583 290.106 48.2583 290.439 47.925C290.789 47.5917 291.198 47.325 291.664 47.125C292.131 46.925 292.631 46.825 293.164 46.825C293.681 46.825 294.173 46.925 294.639 47.125C295.106 47.325 295.506 47.5917 295.839 47.925C296.189 48.2583 296.464 48.6583 296.664 49.125C296.864 49.5917 296.964 50.0833 296.964 50.6C296.964 51.1333 296.864 51.6333 296.664 52.1C296.464 52.55 296.189 52.9417 295.839 53.275C295.506 53.6083 295.106 53.8667 294.639 54.05C294.173 54.25 293.681 54.35 293.164 54.35C292.631 54.35 292.131 54.25 291.664 54.05C291.198 53.8667 290.789 53.6083 290.439 53.275C290.106 52.9417 289.839 52.55 289.639 52.1C289.456 51.6333 289.364 51.1333 289.364 50.6Z" fill="#9C89FF"/>
<path d="M93.56 203.15V141.66C93.56 135.853 93.95 129.44 94.73 122.42L36.36 203.15H93.56ZM145.17 203.15V221.74C145.17 223.473 144.607 224.99 143.48 226.29C142.353 227.503 140.75 228.11 138.67 228.11H121.51V274H93.56V228.11H14.26C12.0933 228.11 10.1867 227.46 8.54 226.16C6.89333 224.773 5.85333 223.083 5.42 221.09L2.04 204.84L91.09 85.89H121.51V203.15H145.17ZM296.12 180.01C296.12 196.39 294.344 210.647 290.79 222.78C287.324 234.827 282.47 244.793 276.23 252.68C270.077 260.567 262.754 266.46 254.26 270.36C245.854 274.173 236.754 276.08 226.96 276.08C217.167 276.08 208.067 274.173 199.66 270.36C191.34 266.46 184.104 260.567 177.95 252.68C171.797 244.793 166.987 234.827 163.52 222.78C160.054 210.647 158.32 196.39 158.32 180.01C158.32 163.543 160.054 149.287 163.52 137.24C166.987 125.193 171.797 115.227 177.95 107.34C184.104 99.4533 191.34 93.6033 199.66 89.79C208.067 85.89 217.167 83.94 226.96 83.94C236.754 83.94 245.854 85.89 254.26 89.79C262.754 93.6033 270.077 99.4533 276.23 107.34C282.47 115.227 287.324 125.193 290.79 137.24C294.344 149.287 296.12 163.543 296.12 180.01ZM262.97 180.01C262.97 166.403 261.974 155.137 259.98 146.21C257.987 137.283 255.3 130.177 251.92 124.89C248.627 119.603 244.814 115.92 240.48 113.84C236.147 111.673 231.64 110.59 226.96 110.59C222.367 110.59 217.904 111.673 213.57 113.84C209.324 115.92 205.554 119.603 202.26 124.89C198.967 130.177 196.324 137.283 194.33 146.21C192.424 155.137 191.47 166.403 191.47 180.01C191.47 193.617 192.424 204.883 194.33 213.81C196.324 222.737 198.967 229.843 202.26 235.13C205.554 240.417 209.324 244.143 213.57 246.31C217.904 248.39 222.367 249.43 226.96 249.43C231.64 249.43 236.147 248.39 240.48 246.31C244.814 244.143 248.627 240.417 251.92 235.13C255.3 229.843 257.987 222.737 259.98 213.81C261.974 204.883 262.97 193.617 262.97 180.01ZM395.201 203.15V141.66C395.201 135.853 395.591 129.44 396.371 122.42L338.001 203.15H395.201ZM446.811 203.15V221.74C446.811 223.473 446.247 224.99 445.121 226.29C443.994 227.503 442.391 228.11 440.311 228.11H423.151V274H395.201V228.11H315.901C313.734 228.11 311.827 227.46 310.181 226.16C308.534 224.773 307.494 223.083 307.061 221.09L303.681 204.84L392.731 85.89H423.151V203.15H446.811Z" fill="#E7E2FF"/>
<path d="M194.579 190.932C189.323 192.677 190.995 198.931 192.488 201.217L214.587 269.783C216.26 278.26 221.257 279.548 223.547 279.132L280.586 259.186C285.364 257.69 284.966 252.745 284.169 250.459C274.613 228.539 255.023 183.639 253.111 179.4C251.2 175.162 246.143 175.764 243.854 176.595L194.579 190.932Z" fill="#7E4FFF"/>
<path d="M195.768 190.29C190.518 191.96 192.188 197.946 193.68 200.133L215.752 265.752C217.422 273.865 222.413 275.098 224.7 274.7L281.669 255.611C286.441 254.179 286.044 249.447 285.248 247.259C275.704 226.281 256.137 183.311 254.228 179.254C252.319 175.198 247.269 175.774 244.982 176.57L195.768 190.29Z" fill="#9E7BFF"/>
<path d="M250.357 186.738L196.967 200.756L208.003 228.495C213.67 248.777 224.507 262.1 231.864 268.463C234.25 263.452 252.942 259.416 261.989 258.024C272.965 257.069 284.459 250.07 288.833 246.689C284.777 244.542 261.492 205.827 250.357 186.738Z" fill="white"/>
<path d="M207.957 193.338L205.722 187.753C205.504 187.207 205.801 186.592 206.364 186.424L228.344 179.829C228.822 179.686 229.333 179.917 229.541 180.371L231.984 185.702C232.236 186.251 231.947 186.896 231.37 187.074L209.18 193.922C208.682 194.076 208.15 193.822 207.957 193.338Z" fill="#7E4FFF"/>
<rect x="213.395" y="210.977" width="26.8102" height="1.19307" rx="0.596536" transform="rotate(-21.5788 213.395 210.977)" fill="#ABC4F9"/>
<rect x="214.031" y="222.945" width="26.8102" height="1.19307" rx="0.596536" transform="rotate(-21.5788 214.031 222.945)" fill="#ABC4F9"/>
<rect x="215.053" y="227.037" width="26.8102" height="1.19307" rx="0.596536" transform="rotate(-21.5788 215.053 227.037)" fill="#ABC4F9"/>
<rect x="216.074" y="231.129" width="26.8102" height="1.19307" rx="0.596536" transform="rotate(-21.5788 216.074 231.129)" fill="#ABC4F9"/>
<rect x="218.285" y="235.099" width="26.8102" height="1.19307" rx="0.596536" transform="rotate(-21.5788 218.285 235.099)" fill="#ABC4F9"/>
<circle cx="256.263" cy="235.15" r="7.64977" transform="rotate(-10.9275 256.263 235.15)" stroke="#7E6DE0" stroke-width="2"/>
<rect x="261.139" y="242.174" width="1.36605" height="10.9284" rx="0.683024" transform="rotate(-43.4978 261.139 242.174)" fill="#7E6DE0"/>
<defs>
<linearGradient id="paint0_linear_7295_1558" x1="227" y1="0" x2="227" y2="454" gradientUnits="userSpaceOnUse">
<stop stop-color="white"/>
<stop offset="1" stop-color="white" stop-opacity="0"/>
</linearGradient>
</defs>
</svg>
