<svg width="1001" height="87" viewBox="0 0 1001 87" fill="none" xmlns="http://www.w3.org/2000/svg">
<g id="Group 8841">
<g id="congrats-bg">
<rect id="Rectangle 73" x="1.5" y="1.5" width="998" height="85" rx="4.5" fill="white" stroke="#FCD673"/>
<g id="Group 8839">
<path id="Vector 77" d="M652 65.6538L655 62L656 63.1538L653.2 67L652 65.6538Z" fill="#BBB0FD"/>
<path id="Vector 78" d="M624.587 12.1358L628.295 12.3513L628.498 13.5465L624.847 13.5519L624.587 12.1358Z" fill="#BBB0FD"/>
<rect id="Rectangle 75" x="643.166" y="53.6691" width="4" height="2" fill="#2ECC71"/>
<path id="Vector 81" d="M586.537 70.4415L591.045 69.0171L591.253 70.5297L586.808 72.2245L586.537 70.4415Z" fill="#BBB0FD"/>
<rect id="Rectangle 83" x="585.678" y="55.5783" width="4" height="2" transform="rotate(33.0761 585.678 55.5783)" fill="#2ECC71"/>
<path id="Rectangle 76" d="M655.429 30L658 31.1538V33L655 31.8462L655.429 30Z" fill="#2ECC71"/>
<path id="Vector 79" d="M606.832 31.6538L609.832 28L610.832 29.1538L608.032 33L606.832 31.6538Z" fill="#BBB0FD"/>
<path id="Vector 80" d="M544 30.6538L547 27L548 28.1538L545.2 32L544 30.6538Z" fill="#BBB0FD"/>
<path id="Rectangle 80" d="M541.429 51L544 52.1538V54L541 52.8462L541.429 51Z" fill="#2ECC71"/>
<path id="Rectangle 78" d="M631.438 31.0923L634.57 30.0174L635.922 31.5421L632.408 32.9549L631.438 31.0923Z" fill="#FED262"/>
<path id="Rectangle 77" d="M675.279 43.5587L678.017 41.6966L679.722 42.8111L676.706 45.0997L675.279 43.5587Z" fill="#2ECC71"/>
<path id="Rectangle 81" d="M554.429 20L557 21.1538V23L554 21.8462L554.429 20Z" fill="#2ECC71"/>
<path id="Rectangle 82" d="M574.279 33.5587L577.017 31.6966L578.722 32.8111L575.706 35.0997L574.279 33.5587Z" fill="#2ECC71"/>
<path id="Vector 82" d="M331.723 65.6538L328.723 62L327.723 63.1538L330.523 67L331.723 65.6538Z" fill="#BBB0FD"/>
<rect id="Rectangle 84" width="4" height="2" transform="matrix(-1 0 0 1 340.555 53.6691)" fill="#2ECC71"/>
<path id="Vector 83" d="M397.184 70.4415L392.676 69.0171L392.467 70.5297L396.913 72.2245L397.184 70.4415Z" fill="#BBB0FD"/>
<rect id="Rectangle 85" width="4" height="2" transform="matrix(-0.837946 0.545753 0.545753 0.837946 398.045 55.5783)" fill="#2ECC71"/>
<path id="Vector 84" d="M376.889 31.6538L373.889 28L372.889 29.1538L375.689 33L376.889 31.6538Z" fill="#BBB0FD"/>
<path id="Vector 85" d="M441 28.6538L444 25L445 26.1538L442.2 30L441 28.6538Z" fill="#BBB0FD"/>
<rect id="Rectangle 86" width="4" height="2" transform="matrix(-1 0 0 1 385.723 19.6691)" fill="#2ECC71"/>
<path id="Rectangle 87" d="M352.283 31.0923L349.151 30.0174L347.799 31.5421L351.312 32.9549L352.283 31.0923Z" fill="#FED262"/>
<path id="Rectangle 88" d="M308.444 43.5587L305.706 41.6966L304 42.8111L307.017 45.0997L308.444 43.5587Z" fill="#2ECC71"/>
<path id="Rectangle 89" d="M409.444 33.5587L406.706 31.6966L405 32.8111L408.017 35.0997L409.444 33.5587Z" fill="#2ECC71"/>
<path id="Vector 86" d="M437 72.6538L440 69L441 70.1538L438.2 74L437 72.6538Z" fill="#BBB0FD"/>
<rect id="Rectangle 90" width="4" height="2" transform="matrix(-1 0 0 1 460.555 53.6691)" fill="#2ECC71"/>
<path id="Vector 87" d="M517.184 70.4415L512.676 69.0171L512.467 70.5297L516.913 72.2245L517.184 70.4415Z" fill="#BBB0FD"/>
<rect id="Rectangle 91" width="4" height="2" transform="matrix(-0.837946 0.545753 0.545753 0.837946 518.045 55.5783)" fill="#2ECC71"/>
<path id="Vector 88" d="M496.889 31.6538L493.889 28L492.889 29.1538L495.689 33L496.889 31.6538Z" fill="#BBB0FD"/>
<rect id="Rectangle 92" width="4" height="2" transform="matrix(-1 0 0 1 505.723 19.6691)" fill="#2ECC71"/>
<path id="Rectangle 93" d="M472.283 31.0923L469.151 30.0174L467.799 31.5421L471.312 32.9549L472.283 31.0923Z" fill="#FED262"/>
<path id="Rectangle 94" d="M428.444 43.5587L425.706 41.6966L424 42.8111L427.017 45.0997L428.444 43.5587Z" fill="#2ECC71"/>
</g>
<path id="Vector 75" d="M873.749 55.9483C834.967 44.729 799.757 71.3081 787 86H992.817C1000.47 87 1000.47 82.5 1000.47 77.9862V44.9294C988.904 16.0798 961.065 32.9087 948.592 44.9294C939.803 53.2771 912.531 67.1676 873.749 55.9483Z" fill="#FCD673"/>
<path id="Vector 76" d="M127.251 30.0517C166.033 41.271 201.243 14.6919 214 0H8.18333C-0.661682 0 0.528992 5 0.528992 8.01378V41.0706C12.0956 69.9202 39.9347 53.0913 52.4084 41.0706C61.1967 32.7229 88.4688 18.8324 127.251 30.0517Z" fill="#FCD673"/>
</g>
<path id="Best wishes from DoSelect UX Testing!" d="M349.318 47.11C349.768 47.11 350.146 47.056 350.452 46.948C350.758 46.84 351.001 46.696 351.181 46.516C351.367 46.336 351.499 46.126 351.577 45.886C351.661 45.646 351.703 45.391 351.703 45.121C351.703 44.839 351.658 44.587 351.568 44.365C351.478 44.137 351.337 43.945 351.145 43.789C350.953 43.627 350.704 43.504 350.398 43.42C350.098 43.336 349.735 43.294 349.309 43.294H346.87V47.11H349.318ZM346.87 37.858V41.62H348.796C349.624 41.62 350.248 41.47 350.668 41.17C351.094 40.87 351.307 40.393 351.307 39.739C351.307 39.061 351.115 38.578 350.731 38.29C350.347 38.002 349.747 37.858 348.931 37.858H346.87ZM348.931 35.986C349.783 35.986 350.512 36.067 351.118 36.229C351.724 36.391 352.219 36.622 352.603 36.922C352.993 37.222 353.278 37.585 353.458 38.011C353.638 38.437 353.728 38.917 353.728 39.451C353.728 39.757 353.683 40.051 353.593 40.333C353.503 40.609 353.362 40.87 353.17 41.116C352.984 41.356 352.744 41.575 352.45 41.773C352.162 41.971 351.817 42.139 351.415 42.277C353.203 42.679 354.097 43.645 354.097 45.175C354.097 45.727 353.992 46.237 353.782 46.705C353.572 47.173 353.266 47.578 352.864 47.92C352.462 48.256 351.967 48.52 351.379 48.712C350.791 48.904 350.119 49 349.363 49H344.449V35.986H348.931ZM361.772 43.321C361.772 43.033 361.73 42.763 361.646 42.511C361.568 42.253 361.448 42.028 361.286 41.836C361.124 41.644 360.917 41.494 360.665 41.386C360.419 41.272 360.131 41.215 359.801 41.215C359.159 41.215 358.652 41.398 358.28 41.764C357.914 42.13 357.68 42.649 357.578 43.321H361.772ZM357.533 44.662C357.569 45.136 357.653 45.547 357.785 45.895C357.917 46.237 358.091 46.522 358.307 46.75C358.523 46.972 358.778 47.14 359.072 47.254C359.372 47.362 359.702 47.416 360.062 47.416C360.422 47.416 360.731 47.374 360.989 47.29C361.253 47.206 361.481 47.113 361.673 47.011C361.871 46.909 362.042 46.816 362.186 46.732C362.336 46.648 362.48 46.606 362.618 46.606C362.804 46.606 362.942 46.675 363.032 46.813L363.671 47.623C363.425 47.911 363.149 48.154 362.843 48.352C362.537 48.544 362.216 48.7 361.88 48.82C361.55 48.934 361.211 49.015 360.863 49.063C360.521 49.111 360.188 49.135 359.864 49.135C359.222 49.135 358.625 49.03 358.073 48.82C357.521 48.604 357.041 48.289 356.633 47.875C356.225 47.455 355.904 46.939 355.67 46.327C355.436 45.709 355.319 44.995 355.319 44.185C355.319 43.555 355.421 42.964 355.625 42.412C355.829 41.854 356.12 41.371 356.498 40.963C356.882 40.549 357.347 40.222 357.893 39.982C358.445 39.742 359.066 39.622 359.756 39.622C360.338 39.622 360.875 39.715 361.367 39.901C361.859 40.087 362.282 40.36 362.636 40.72C362.99 41.074 363.266 41.512 363.464 42.034C363.668 42.55 363.77 43.141 363.77 43.807C363.77 44.143 363.734 44.371 363.662 44.491C363.59 44.605 363.452 44.662 363.248 44.662H357.533ZM371.072 41.566C371.012 41.662 370.949 41.731 370.883 41.773C370.817 41.809 370.733 41.827 370.631 41.827C370.523 41.827 370.406 41.797 370.28 41.737C370.16 41.677 370.019 41.611 369.857 41.539C369.695 41.461 369.509 41.392 369.299 41.332C369.095 41.272 368.852 41.242 368.57 41.242C368.132 41.242 367.787 41.335 367.535 41.521C367.289 41.707 367.166 41.95 367.166 42.25C367.166 42.448 367.229 42.616 367.355 42.754C367.487 42.886 367.658 43.003 367.868 43.105C368.084 43.207 368.327 43.3 368.597 43.384C368.867 43.462 369.14 43.549 369.416 43.645C369.698 43.741 369.974 43.852 370.244 43.978C370.514 44.098 370.754 44.254 370.964 44.446C371.18 44.632 371.351 44.857 371.477 45.121C371.609 45.385 371.675 45.703 371.675 46.075C371.675 46.519 371.594 46.93 371.432 47.308C371.276 47.68 371.042 48.004 370.73 48.28C370.418 48.55 370.031 48.763 369.569 48.919C369.113 49.069 368.585 49.144 367.985 49.144C367.667 49.144 367.355 49.114 367.049 49.054C366.749 49 366.458 48.922 366.176 48.82C365.9 48.718 365.642 48.598 365.402 48.46C365.168 48.322 364.961 48.172 364.781 48.01L365.294 47.164C365.36 47.062 365.438 46.984 365.528 46.93C365.618 46.876 365.732 46.849 365.87 46.849C366.008 46.849 366.137 46.888 366.257 46.966C366.383 47.044 366.527 47.128 366.689 47.218C366.851 47.308 367.04 47.392 367.256 47.47C367.478 47.548 367.757 47.587 368.093 47.587C368.357 47.587 368.582 47.557 368.768 47.497C368.96 47.431 369.116 47.347 369.236 47.245C369.362 47.143 369.452 47.026 369.506 46.894C369.566 46.756 369.596 46.615 369.596 46.471C369.596 46.255 369.53 46.078 369.398 45.94C369.272 45.802 369.101 45.682 368.885 45.58C368.675 45.478 368.432 45.388 368.156 45.31C367.886 45.226 367.607 45.136 367.319 45.04C367.037 44.944 366.758 44.833 366.482 44.707C366.212 44.575 365.969 44.41 365.753 44.212C365.543 44.014 365.372 43.771 365.24 43.483C365.114 43.195 365.051 42.847 365.051 42.439C365.051 42.061 365.126 41.701 365.276 41.359C365.426 41.017 365.645 40.72 365.933 40.468C366.227 40.21 366.59 40.006 367.022 39.856C367.46 39.7 367.964 39.622 368.534 39.622C369.17 39.622 369.749 39.727 370.271 39.937C370.793 40.147 371.228 40.423 371.576 40.765L371.072 41.566ZM376.426 49.144C375.622 49.144 375.004 48.919 374.572 48.469C374.146 48.013 373.933 47.386 373.933 46.588V41.431H372.988C372.868 41.431 372.766 41.392 372.682 41.314C372.598 41.236 372.556 41.119 372.556 40.963V40.081L374.041 39.838L374.509 37.318C374.539 37.198 374.596 37.105 374.68 37.039C374.764 36.973 374.872 36.94 375.004 36.94H376.156V39.847H378.622V41.431H376.156V46.435C376.156 46.723 376.225 46.948 376.363 47.11C376.507 47.272 376.702 47.353 376.948 47.353C377.086 47.353 377.2 47.338 377.29 47.308C377.386 47.272 377.467 47.236 377.533 47.2C377.605 47.164 377.668 47.131 377.722 47.101C377.776 47.065 377.83 47.047 377.884 47.047C377.95 47.047 378.004 47.065 378.046 47.101C378.088 47.131 378.133 47.179 378.181 47.245L378.847 48.325C378.523 48.595 378.151 48.799 377.731 48.937C377.311 49.075 376.876 49.144 376.426 49.144ZM397.238 39.766L394.304 49H392.522C392.318 49 392.177 48.868 392.099 48.604L390.443 43.267C390.389 43.087 390.338 42.91 390.29 42.736C390.248 42.556 390.212 42.376 390.182 42.196C390.146 42.376 390.104 42.559 390.056 42.745C390.014 42.925 389.966 43.105 389.912 43.285L388.229 48.604C388.157 48.868 387.998 49 387.752 49H386.042L383.117 39.766H384.89C385.052 39.766 385.19 39.805 385.304 39.883C385.418 39.961 385.493 40.06 385.529 40.18L386.852 45.112C386.918 45.382 386.975 45.646 387.023 45.904C387.077 46.162 387.122 46.42 387.158 46.678C387.224 46.42 387.293 46.162 387.365 45.904C387.443 45.646 387.524 45.382 387.608 45.112L389.138 40.162C389.174 40.042 389.243 39.943 389.345 39.865C389.453 39.787 389.582 39.748 389.732 39.748H390.713C390.869 39.748 391.001 39.787 391.109 39.865C391.223 39.943 391.298 40.042 391.334 40.162L392.819 45.112C392.897 45.382 392.969 45.649 393.035 45.913C393.107 46.171 393.176 46.429 393.242 46.687C393.32 46.177 393.431 45.652 393.575 45.112L394.934 40.18C394.976 40.06 395.051 39.961 395.159 39.883C395.267 39.805 395.396 39.766 395.546 39.766H397.238ZM400.806 39.766V49H398.574V39.766H400.806ZM401.112 37.075C401.112 37.267 401.073 37.447 400.995 37.615C400.917 37.783 400.812 37.93 400.68 38.056C400.554 38.182 400.404 38.284 400.23 38.362C400.056 38.434 399.87 38.47 399.672 38.47C399.48 38.47 399.297 38.434 399.123 38.362C398.955 38.284 398.808 38.182 398.682 38.056C398.556 37.93 398.454 37.783 398.376 37.615C398.304 37.447 398.268 37.267 398.268 37.075C398.268 36.877 398.304 36.691 398.376 36.517C398.454 36.343 398.556 36.193 398.682 36.067C398.808 35.941 398.955 35.842 399.123 35.77C399.297 35.692 399.48 35.653 399.672 35.653C399.87 35.653 400.056 35.692 400.23 35.77C400.404 35.842 400.554 35.941 400.68 36.067C400.812 36.193 400.917 36.343 400.995 36.517C401.073 36.691 401.112 36.877 401.112 37.075ZM408.707 41.566C408.647 41.662 408.584 41.731 408.518 41.773C408.452 41.809 408.368 41.827 408.266 41.827C408.158 41.827 408.041 41.797 407.915 41.737C407.795 41.677 407.654 41.611 407.492 41.539C407.33 41.461 407.144 41.392 406.934 41.332C406.73 41.272 406.487 41.242 406.205 41.242C405.767 41.242 405.422 41.335 405.17 41.521C404.924 41.707 404.801 41.95 404.801 42.25C404.801 42.448 404.864 42.616 404.99 42.754C405.122 42.886 405.293 43.003 405.503 43.105C405.719 43.207 405.962 43.3 406.232 43.384C406.502 43.462 406.775 43.549 407.051 43.645C407.333 43.741 407.609 43.852 407.879 43.978C408.149 44.098 408.389 44.254 408.599 44.446C408.815 44.632 408.986 44.857 409.112 45.121C409.244 45.385 409.31 45.703 409.31 46.075C409.31 46.519 409.229 46.93 409.067 47.308C408.911 47.68 408.677 48.004 408.365 48.28C408.053 48.55 407.666 48.763 407.204 48.919C406.748 49.069 406.22 49.144 405.62 49.144C405.302 49.144 404.99 49.114 404.684 49.054C404.384 49 404.093 48.922 403.811 48.82C403.535 48.718 403.277 48.598 403.037 48.46C402.803 48.322 402.596 48.172 402.416 48.01L402.929 47.164C402.995 47.062 403.073 46.984 403.163 46.93C403.253 46.876 403.367 46.849 403.505 46.849C403.643 46.849 403.772 46.888 403.892 46.966C404.018 47.044 404.162 47.128 404.324 47.218C404.486 47.308 404.675 47.392 404.891 47.47C405.113 47.548 405.392 47.587 405.728 47.587C405.992 47.587 406.217 47.557 406.403 47.497C406.595 47.431 406.751 47.347 406.871 47.245C406.997 47.143 407.087 47.026 407.141 46.894C407.201 46.756 407.231 46.615 407.231 46.471C407.231 46.255 407.165 46.078 407.033 45.94C406.907 45.802 406.736 45.682 406.52 45.58C406.31 45.478 406.067 45.388 405.791 45.31C405.521 45.226 405.242 45.136 404.954 45.04C404.672 44.944 404.393 44.833 404.117 44.707C403.847 44.575 403.604 44.41 403.388 44.212C403.178 44.014 403.007 43.771 402.875 43.483C402.749 43.195 402.686 42.847 402.686 42.439C402.686 42.061 402.761 41.701 402.911 41.359C403.061 41.017 403.28 40.72 403.568 40.468C403.862 40.21 404.225 40.006 404.657 39.856C405.095 39.7 405.599 39.622 406.169 39.622C406.805 39.622 407.384 39.727 407.906 39.937C408.428 40.147 408.863 40.423 409.211 40.765L408.707 41.566ZM413.206 40.756C413.566 40.42 413.962 40.147 414.394 39.937C414.826 39.727 415.333 39.622 415.915 39.622C416.419 39.622 416.866 39.709 417.256 39.883C417.646 40.051 417.97 40.291 418.228 40.603C418.492 40.909 418.69 41.278 418.822 41.71C418.96 42.136 419.029 42.607 419.029 43.123V49H416.806V43.123C416.806 42.559 416.677 42.124 416.419 41.818C416.161 41.506 415.768 41.35 415.24 41.35C414.856 41.35 414.496 41.437 414.16 41.611C413.824 41.785 413.506 42.022 413.206 42.322V49H410.983V35.626H413.206V40.756ZM427.092 43.321C427.092 43.033 427.05 42.763 426.966 42.511C426.888 42.253 426.768 42.028 426.606 41.836C426.444 41.644 426.237 41.494 425.985 41.386C425.739 41.272 425.451 41.215 425.121 41.215C424.479 41.215 423.972 41.398 423.6 41.764C423.234 42.13 423 42.649 422.898 43.321H427.092ZM422.853 44.662C422.889 45.136 422.973 45.547 423.105 45.895C423.237 46.237 423.411 46.522 423.627 46.75C423.843 46.972 424.098 47.14 424.392 47.254C424.692 47.362 425.022 47.416 425.382 47.416C425.742 47.416 426.051 47.374 426.309 47.29C426.573 47.206 426.801 47.113 426.993 47.011C427.191 46.909 427.362 46.816 427.506 46.732C427.656 46.648 427.8 46.606 427.938 46.606C428.124 46.606 428.262 46.675 428.352 46.813L428.991 47.623C428.745 47.911 428.469 48.154 428.163 48.352C427.857 48.544 427.536 48.7 427.2 48.82C426.87 48.934 426.531 49.015 426.183 49.063C425.841 49.111 425.508 49.135 425.184 49.135C424.542 49.135 423.945 49.03 423.393 48.82C422.841 48.604 422.361 48.289 421.953 47.875C421.545 47.455 421.224 46.939 420.99 46.327C420.756 45.709 420.639 44.995 420.639 44.185C420.639 43.555 420.741 42.964 420.945 42.412C421.149 41.854 421.44 41.371 421.818 40.963C422.202 40.549 422.667 40.222 423.213 39.982C423.765 39.742 424.386 39.622 425.076 39.622C425.658 39.622 426.195 39.715 426.687 39.901C427.179 40.087 427.602 40.36 427.956 40.72C428.31 41.074 428.586 41.512 428.784 42.034C428.988 42.55 429.09 43.141 429.09 43.807C429.09 44.143 429.054 44.371 428.982 44.491C428.91 44.605 428.772 44.662 428.568 44.662H422.853ZM436.392 41.566C436.332 41.662 436.269 41.731 436.203 41.773C436.137 41.809 436.053 41.827 435.951 41.827C435.843 41.827 435.726 41.797 435.6 41.737C435.48 41.677 435.339 41.611 435.177 41.539C435.015 41.461 434.829 41.392 434.619 41.332C434.415 41.272 434.172 41.242 433.89 41.242C433.452 41.242 433.107 41.335 432.855 41.521C432.609 41.707 432.486 41.95 432.486 42.25C432.486 42.448 432.549 42.616 432.675 42.754C432.807 42.886 432.978 43.003 433.188 43.105C433.404 43.207 433.647 43.3 433.917 43.384C434.187 43.462 434.46 43.549 434.736 43.645C435.018 43.741 435.294 43.852 435.564 43.978C435.834 44.098 436.074 44.254 436.284 44.446C436.5 44.632 436.671 44.857 436.797 45.121C436.929 45.385 436.995 45.703 436.995 46.075C436.995 46.519 436.914 46.93 436.752 47.308C436.596 47.68 436.362 48.004 436.05 48.28C435.738 48.55 435.351 48.763 434.889 48.919C434.433 49.069 433.905 49.144 433.305 49.144C432.987 49.144 432.675 49.114 432.369 49.054C432.069 49 431.778 48.922 431.496 48.82C431.22 48.718 430.962 48.598 430.722 48.46C430.488 48.322 430.281 48.172 430.101 48.01L430.614 47.164C430.68 47.062 430.758 46.984 430.848 46.93C430.938 46.876 431.052 46.849 431.19 46.849C431.328 46.849 431.457 46.888 431.577 46.966C431.703 47.044 431.847 47.128 432.009 47.218C432.171 47.308 432.36 47.392 432.576 47.47C432.798 47.548 433.077 47.587 433.413 47.587C433.677 47.587 433.902 47.557 434.088 47.497C434.28 47.431 434.436 47.347 434.556 47.245C434.682 47.143 434.772 47.026 434.826 46.894C434.886 46.756 434.916 46.615 434.916 46.471C434.916 46.255 434.85 46.078 434.718 45.94C434.592 45.802 434.421 45.682 434.205 45.58C433.995 45.478 433.752 45.388 433.476 45.31C433.206 45.226 432.927 45.136 432.639 45.04C432.357 44.944 432.078 44.833 431.802 44.707C431.532 44.575 431.289 44.41 431.073 44.212C430.863 44.014 430.692 43.771 430.56 43.483C430.434 43.195 430.371 42.847 430.371 42.439C430.371 42.061 430.446 41.701 430.596 41.359C430.746 41.017 430.965 40.72 431.253 40.468C431.547 40.21 431.91 40.006 432.342 39.856C432.78 39.7 433.284 39.622 433.854 39.622C434.49 39.622 435.069 39.727 435.591 39.937C436.113 40.147 436.548 40.423 436.896 40.765L436.392 41.566ZM443.693 49V41.44L442.892 41.314C442.718 41.278 442.577 41.218 442.469 41.134C442.367 41.044 442.316 40.918 442.316 40.756V39.847H443.693V39.163C443.693 38.635 443.771 38.161 443.927 37.741C444.089 37.321 444.317 36.964 444.611 36.67C444.911 36.376 445.274 36.151 445.7 35.995C446.126 35.839 446.606 35.761 447.14 35.761C447.566 35.761 447.962 35.818 448.328 35.932L448.283 37.048C448.277 37.132 448.253 37.201 448.211 37.255C448.169 37.303 448.112 37.342 448.04 37.372C447.974 37.396 447.896 37.414 447.806 37.426C447.716 37.432 447.62 37.435 447.518 37.435C447.254 37.435 447.017 37.465 446.807 37.525C446.603 37.579 446.429 37.678 446.285 37.822C446.141 37.96 446.03 38.146 445.952 38.38C445.88 38.608 445.844 38.893 445.844 39.235V39.847H448.247V41.431H445.916V49H443.693ZM451.593 41.368C451.881 40.816 452.223 40.384 452.619 40.072C453.015 39.754 453.483 39.595 454.023 39.595C454.449 39.595 454.791 39.688 455.049 39.874L454.905 41.539C454.875 41.647 454.83 41.725 454.77 41.773C454.716 41.815 454.641 41.836 454.545 41.836C454.455 41.836 454.32 41.821 454.14 41.791C453.966 41.761 453.795 41.746 453.627 41.746C453.381 41.746 453.162 41.782 452.97 41.854C452.778 41.926 452.604 42.031 452.448 42.169C452.298 42.301 452.163 42.463 452.043 42.655C451.929 42.847 451.821 43.066 451.719 43.312V49H449.496V39.766H450.801C451.029 39.766 451.188 39.808 451.278 39.892C451.368 39.97 451.428 40.114 451.458 40.324L451.593 41.368ZM460.034 39.622C460.718 39.622 461.339 39.733 461.897 39.955C462.461 40.177 462.941 40.492 463.337 40.9C463.739 41.308 464.048 41.806 464.264 42.394C464.48 42.982 464.588 43.639 464.588 44.365C464.588 45.097 464.48 45.757 464.264 46.345C464.048 46.933 463.739 47.434 463.337 47.848C462.941 48.262 462.461 48.58 461.897 48.802C461.339 49.024 460.718 49.135 460.034 49.135C459.344 49.135 458.717 49.024 458.153 48.802C457.589 48.58 457.106 48.262 456.704 47.848C456.308 47.434 455.999 46.933 455.777 46.345C455.561 45.757 455.453 45.097 455.453 44.365C455.453 43.639 455.561 42.982 455.777 42.394C455.999 41.806 456.308 41.308 456.704 40.9C457.106 40.492 457.589 40.177 458.153 39.955C458.717 39.733 459.344 39.622 460.034 39.622ZM460.034 47.425C460.802 47.425 461.369 47.167 461.735 46.651C462.107 46.135 462.293 45.379 462.293 44.383C462.293 43.387 462.107 42.628 461.735 42.106C461.369 41.584 460.802 41.323 460.034 41.323C459.254 41.323 458.675 41.587 458.297 42.115C457.925 42.637 457.739 43.393 457.739 44.383C457.739 45.373 457.925 46.129 458.297 46.651C458.675 47.167 459.254 47.425 460.034 47.425ZM466.284 49V39.766H467.643C467.931 39.766 468.12 39.901 468.21 40.171L468.354 40.855C468.516 40.675 468.684 40.51 468.858 40.36C469.038 40.21 469.227 40.081 469.425 39.973C469.629 39.865 469.845 39.781 470.073 39.721C470.307 39.655 470.562 39.622 470.838 39.622C471.42 39.622 471.897 39.781 472.269 40.099C472.647 40.411 472.929 40.828 473.115 41.35C473.259 41.044 473.439 40.783 473.655 40.567C473.871 40.345 474.108 40.165 474.366 40.027C474.624 39.889 474.897 39.787 475.185 39.721C475.479 39.655 475.773 39.622 476.067 39.622C476.577 39.622 477.03 39.7 477.426 39.856C477.822 40.012 478.155 40.24 478.425 40.54C478.695 40.84 478.899 41.206 479.037 41.638C479.181 42.07 479.253 42.565 479.253 43.123V49H477.03V43.123C477.03 42.535 476.901 42.094 476.643 41.8C476.385 41.5 476.007 41.35 475.509 41.35C475.281 41.35 475.068 41.389 474.87 41.467C474.678 41.545 474.507 41.659 474.357 41.809C474.213 41.953 474.099 42.136 474.015 42.358C473.931 42.58 473.889 42.835 473.889 43.123V49H471.657V43.123C471.657 42.505 471.531 42.055 471.279 41.773C471.033 41.491 470.67 41.35 470.19 41.35C469.866 41.35 469.563 41.431 469.281 41.593C469.005 41.749 468.747 41.965 468.507 42.241V49H466.284ZM497.65 42.493C497.65 43.447 497.491 44.323 497.173 45.121C496.855 45.919 496.408 46.606 495.832 47.182C495.256 47.758 494.563 48.205 493.753 48.523C492.943 48.841 492.043 49 491.053 49H486.094V35.986H491.053C492.043 35.986 492.943 36.148 493.753 36.472C494.563 36.79 495.256 37.237 495.832 37.813C496.408 38.383 496.855 39.067 497.173 39.865C497.491 40.663 497.65 41.539 497.65 42.493ZM495.166 42.493C495.166 41.779 495.07 41.14 494.878 40.576C494.692 40.006 494.419 39.526 494.059 39.136C493.705 38.74 493.273 38.437 492.763 38.227C492.259 38.017 491.689 37.912 491.053 37.912H488.524V47.074H491.053C491.689 47.074 492.259 46.969 492.763 46.759C493.273 46.549 493.705 46.249 494.059 45.859C494.419 45.463 494.692 44.983 494.878 44.419C495.07 43.849 495.166 43.207 495.166 42.493ZM503.399 39.622C504.083 39.622 504.704 39.733 505.262 39.955C505.826 40.177 506.306 40.492 506.702 40.9C507.104 41.308 507.413 41.806 507.629 42.394C507.845 42.982 507.953 43.639 507.953 44.365C507.953 45.097 507.845 45.757 507.629 46.345C507.413 46.933 507.104 47.434 506.702 47.848C506.306 48.262 505.826 48.58 505.262 48.802C504.704 49.024 504.083 49.135 503.399 49.135C502.709 49.135 502.082 49.024 501.518 48.802C500.954 48.58 500.471 48.262 500.069 47.848C499.673 47.434 499.364 46.933 499.142 46.345C498.926 45.757 498.818 45.097 498.818 44.365C498.818 43.639 498.926 42.982 499.142 42.394C499.364 41.806 499.673 41.308 500.069 40.9C500.471 40.492 500.954 40.177 501.518 39.955C502.082 39.733 502.709 39.622 503.399 39.622ZM503.399 47.425C504.167 47.425 504.734 47.167 505.1 46.651C505.472 46.135 505.658 45.379 505.658 44.383C505.658 43.387 505.472 42.628 505.1 42.106C504.734 41.584 504.167 41.323 503.399 41.323C502.619 41.323 502.04 41.587 501.662 42.115C501.29 42.637 501.104 43.393 501.104 44.383C501.104 45.373 501.29 46.129 501.662 46.651C502.04 47.167 502.619 47.425 503.399 47.425ZM516.666 38.353C516.594 38.479 516.516 38.572 516.432 38.632C516.354 38.686 516.255 38.713 516.135 38.713C516.009 38.713 515.871 38.668 515.721 38.578C515.577 38.482 515.403 38.377 515.199 38.263C514.995 38.149 514.755 38.047 514.479 37.957C514.209 37.861 513.888 37.813 513.516 37.813C513.18 37.813 512.886 37.855 512.634 37.939C512.382 38.017 512.169 38.128 511.995 38.272C511.827 38.416 511.701 38.59 511.617 38.794C511.533 38.992 511.491 39.211 511.491 39.451C511.491 39.757 511.575 40.012 511.743 40.216C511.917 40.42 512.145 40.594 512.427 40.738C512.709 40.882 513.03 41.011 513.39 41.125C513.75 41.239 514.119 41.362 514.497 41.494C514.875 41.62 515.244 41.77 515.604 41.944C515.964 42.112 516.285 42.328 516.567 42.592C516.849 42.85 517.074 43.168 517.242 43.546C517.416 43.924 517.503 44.383 517.503 44.923C517.503 45.511 517.401 46.063 517.197 46.579C516.999 47.089 516.705 47.536 516.315 47.92C515.931 48.298 515.46 48.598 514.902 48.82C514.344 49.036 513.705 49.144 512.985 49.144C512.571 49.144 512.163 49.102 511.761 49.018C511.359 48.94 510.972 48.826 510.6 48.676C510.234 48.526 509.889 48.346 509.565 48.136C509.241 47.926 508.953 47.692 508.701 47.434L509.412 46.273C509.472 46.189 509.55 46.12 509.646 46.066C509.742 46.006 509.844 45.976 509.952 45.976C510.102 45.976 510.264 46.039 510.438 46.165C510.612 46.285 510.819 46.42 511.059 46.57C511.299 46.72 511.578 46.858 511.896 46.984C512.22 47.104 512.607 47.164 513.057 47.164C513.747 47.164 514.281 47.002 514.659 46.678C515.037 46.348 515.226 45.877 515.226 45.265C515.226 44.923 515.139 44.644 514.965 44.428C514.797 44.212 514.572 44.032 514.29 43.888C514.008 43.738 513.687 43.612 513.327 43.51C512.967 43.408 512.601 43.297 512.229 43.177C511.857 43.057 511.491 42.913 511.131 42.745C510.771 42.577 510.45 42.358 510.168 42.088C509.886 41.818 509.658 41.482 509.484 41.08C509.316 40.672 509.232 40.171 509.232 39.577C509.232 39.103 509.325 38.641 509.511 38.191C509.703 37.741 509.979 37.342 510.339 36.994C510.699 36.646 511.143 36.367 511.671 36.157C512.199 35.947 512.805 35.842 513.489 35.842C514.257 35.842 514.965 35.962 515.613 36.202C516.261 36.442 516.813 36.778 517.269 37.21L516.666 38.353ZM525.178 43.321C525.178 43.033 525.136 42.763 525.052 42.511C524.974 42.253 524.854 42.028 524.692 41.836C524.53 41.644 524.323 41.494 524.071 41.386C523.825 41.272 523.537 41.215 523.207 41.215C522.565 41.215 522.058 41.398 521.686 41.764C521.32 42.13 521.086 42.649 520.984 43.321H525.178ZM520.939 44.662C520.975 45.136 521.059 45.547 521.191 45.895C521.323 46.237 521.497 46.522 521.713 46.75C521.929 46.972 522.184 47.14 522.478 47.254C522.778 47.362 523.108 47.416 523.468 47.416C523.828 47.416 524.137 47.374 524.395 47.29C524.659 47.206 524.887 47.113 525.079 47.011C525.277 46.909 525.448 46.816 525.592 46.732C525.742 46.648 525.886 46.606 526.024 46.606C526.21 46.606 526.348 46.675 526.438 46.813L527.077 47.623C526.831 47.911 526.555 48.154 526.249 48.352C525.943 48.544 525.622 48.7 525.286 48.82C524.956 48.934 524.617 49.015 524.269 49.063C523.927 49.111 523.594 49.135 523.27 49.135C522.628 49.135 522.031 49.03 521.479 48.82C520.927 48.604 520.447 48.289 520.039 47.875C519.631 47.455 519.31 46.939 519.076 46.327C518.842 45.709 518.725 44.995 518.725 44.185C518.725 43.555 518.827 42.964 519.031 42.412C519.235 41.854 519.526 41.371 519.904 40.963C520.288 40.549 520.753 40.222 521.299 39.982C521.851 39.742 522.472 39.622 523.162 39.622C523.744 39.622 524.281 39.715 524.773 39.901C525.265 40.087 525.688 40.36 526.042 40.72C526.396 41.074 526.672 41.512 526.87 42.034C527.074 42.55 527.176 43.141 527.176 43.807C527.176 44.143 527.14 44.371 527.068 44.491C526.996 44.605 526.858 44.662 526.654 44.662H520.939ZM531.094 35.626V49H528.871V35.626H531.094ZM539.258 43.321C539.258 43.033 539.216 42.763 539.132 42.511C539.054 42.253 538.934 42.028 538.772 41.836C538.61 41.644 538.403 41.494 538.151 41.386C537.905 41.272 537.617 41.215 537.287 41.215C536.645 41.215 536.138 41.398 535.766 41.764C535.4 42.13 535.166 42.649 535.064 43.321H539.258ZM535.019 44.662C535.055 45.136 535.139 45.547 535.271 45.895C535.403 46.237 535.577 46.522 535.793 46.75C536.009 46.972 536.264 47.14 536.558 47.254C536.858 47.362 537.188 47.416 537.548 47.416C537.908 47.416 538.217 47.374 538.475 47.29C538.739 47.206 538.967 47.113 539.159 47.011C539.357 46.909 539.528 46.816 539.672 46.732C539.822 46.648 539.966 46.606 540.104 46.606C540.29 46.606 540.428 46.675 540.518 46.813L541.157 47.623C540.911 47.911 540.635 48.154 540.329 48.352C540.023 48.544 539.702 48.7 539.366 48.82C539.036 48.934 538.697 49.015 538.349 49.063C538.007 49.111 537.674 49.135 537.35 49.135C536.708 49.135 536.111 49.03 535.559 48.82C535.007 48.604 534.527 48.289 534.119 47.875C533.711 47.455 533.39 46.939 533.156 46.327C532.922 45.709 532.805 44.995 532.805 44.185C532.805 43.555 532.907 42.964 533.111 42.412C533.315 41.854 533.606 41.371 533.984 40.963C534.368 40.549 534.833 40.222 535.379 39.982C535.931 39.742 536.552 39.622 537.242 39.622C537.824 39.622 538.361 39.715 538.853 39.901C539.345 40.087 539.768 40.36 540.122 40.72C540.476 41.074 540.752 41.512 540.95 42.034C541.154 42.55 541.256 43.141 541.256 43.807C541.256 44.143 541.22 44.371 541.148 44.491C541.076 44.605 540.938 44.662 540.734 44.662H535.019ZM549.539 41.719C549.473 41.803 549.407 41.869 549.341 41.917C549.281 41.965 549.191 41.989 549.071 41.989C548.957 41.989 548.846 41.956 548.738 41.89C548.63 41.818 548.501 41.74 548.351 41.656C548.201 41.566 548.021 41.488 547.811 41.422C547.607 41.35 547.352 41.314 547.046 41.314C546.656 41.314 546.314 41.386 546.02 41.53C545.726 41.668 545.48 41.869 545.282 42.133C545.09 42.397 544.946 42.718 544.85 43.096C544.754 43.468 544.706 43.891 544.706 44.365C544.706 44.857 544.757 45.295 544.859 45.679C544.967 46.063 545.12 46.387 545.318 46.651C545.516 46.909 545.756 47.107 546.038 47.245C546.32 47.377 546.638 47.443 546.992 47.443C547.346 47.443 547.631 47.401 547.847 47.317C548.069 47.227 548.255 47.131 548.405 47.029C548.555 46.921 548.684 46.825 548.792 46.741C548.906 46.651 549.032 46.606 549.17 46.606C549.35 46.606 549.485 46.675 549.575 46.813L550.214 47.623C549.968 47.911 549.701 48.154 549.413 48.352C549.125 48.544 548.825 48.7 548.513 48.82C548.207 48.934 547.889 49.015 547.559 49.063C547.235 49.111 546.911 49.135 546.587 49.135C546.017 49.135 545.48 49.03 544.976 48.82C544.472 48.604 544.031 48.292 543.653 47.884C543.275 47.476 542.975 46.978 542.753 46.39C542.537 45.796 542.429 45.121 542.429 44.365C542.429 43.687 542.525 43.06 542.717 42.484C542.915 41.902 543.203 41.401 543.581 40.981C543.959 40.555 544.427 40.222 544.985 39.982C545.543 39.742 546.185 39.622 546.911 39.622C547.601 39.622 548.204 39.733 548.72 39.955C549.242 40.177 549.71 40.495 550.124 40.909L549.539 41.719ZM554.686 49.144C553.882 49.144 553.264 48.919 552.832 48.469C552.406 48.013 552.193 47.386 552.193 46.588V41.431H551.248C551.128 41.431 551.026 41.392 550.942 41.314C550.858 41.236 550.816 41.119 550.816 40.963V40.081L552.301 39.838L552.769 37.318C552.799 37.198 552.856 37.105 552.94 37.039C553.024 36.973 553.132 36.94 553.264 36.94H554.416V39.847H556.882V41.431H554.416V46.435C554.416 46.723 554.485 46.948 554.623 47.11C554.767 47.272 554.962 47.353 555.208 47.353C555.346 47.353 555.46 47.338 555.55 47.308C555.646 47.272 555.727 47.236 555.793 47.2C555.865 47.164 555.928 47.131 555.982 47.101C556.036 47.065 556.09 47.047 556.144 47.047C556.21 47.047 556.264 47.065 556.306 47.101C556.348 47.131 556.393 47.179 556.441 47.245L557.107 48.325C556.783 48.595 556.411 48.799 555.991 48.937C555.571 49.075 555.136 49.144 554.686 49.144ZM568.271 47.047C568.739 47.047 569.156 46.969 569.522 46.813C569.894 46.657 570.206 46.438 570.458 46.156C570.71 45.874 570.902 45.532 571.034 45.13C571.172 44.728 571.241 44.278 571.241 43.78V35.986H573.662V43.78C573.662 44.554 573.536 45.271 573.284 45.931C573.038 46.585 572.681 47.152 572.213 47.632C571.751 48.106 571.187 48.478 570.521 48.748C569.855 49.012 569.105 49.144 568.271 49.144C567.431 49.144 566.678 49.012 566.012 48.748C565.346 48.478 564.779 48.106 564.311 47.632C563.849 47.152 563.492 46.585 563.24 45.931C562.994 45.271 562.871 44.554 562.871 43.78V35.986H565.292V43.771C565.292 44.269 565.358 44.719 565.49 45.121C565.628 45.523 565.823 45.868 566.075 46.156C566.333 46.438 566.645 46.657 567.011 46.813C567.383 46.969 567.803 47.047 568.271 47.047ZM586.967 49H584.555C584.387 49 584.252 48.958 584.15 48.874C584.054 48.79 583.976 48.694 583.916 48.586L580.901 43.591C580.853 43.741 580.796 43.87 580.73 43.978L577.841 48.586C577.769 48.688 577.685 48.784 577.589 48.874C577.499 48.958 577.379 49 577.229 49H574.97L579.29 42.304L575.141 35.986H577.553C577.721 35.986 577.841 36.01 577.913 36.058C577.991 36.1 578.063 36.172 578.129 36.274L581.09 41.044C581.15 40.894 581.222 40.744 581.306 40.594L584.024 36.319C584.09 36.205 584.162 36.121 584.24 36.067C584.318 36.013 584.417 35.986 584.537 35.986H586.85L582.665 42.205L586.967 49ZM601.391 37.975H597.467V49H595.046V37.975H591.122V35.986H601.391V37.975ZM606.529 43.321C606.529 43.033 606.487 42.763 606.403 42.511C606.325 42.253 606.205 42.028 606.043 41.836C605.881 41.644 605.674 41.494 605.422 41.386C605.176 41.272 604.888 41.215 604.558 41.215C603.916 41.215 603.409 41.398 603.037 41.764C602.671 42.13 602.437 42.649 602.335 43.321H606.529ZM602.29 44.662C602.326 45.136 602.41 45.547 602.542 45.895C602.674 46.237 602.848 46.522 603.064 46.75C603.28 46.972 603.535 47.14 603.829 47.254C604.129 47.362 604.459 47.416 604.819 47.416C605.179 47.416 605.488 47.374 605.746 47.29C606.01 47.206 606.238 47.113 606.43 47.011C606.628 46.909 606.799 46.816 606.943 46.732C607.093 46.648 607.237 46.606 607.375 46.606C607.561 46.606 607.699 46.675 607.789 46.813L608.428 47.623C608.182 47.911 607.906 48.154 607.6 48.352C607.294 48.544 606.973 48.7 606.637 48.82C606.307 48.934 605.968 49.015 605.62 49.063C605.278 49.111 604.945 49.135 604.621 49.135C603.979 49.135 603.382 49.03 602.83 48.82C602.278 48.604 601.798 48.289 601.39 47.875C600.982 47.455 600.661 46.939 600.427 46.327C600.193 45.709 600.076 44.995 600.076 44.185C600.076 43.555 600.178 42.964 600.382 42.412C600.586 41.854 600.877 41.371 601.255 40.963C601.639 40.549 602.104 40.222 602.65 39.982C603.202 39.742 603.823 39.622 604.513 39.622C605.095 39.622 605.632 39.715 606.124 39.901C606.616 40.087 607.039 40.36 607.393 40.72C607.747 41.074 608.023 41.512 608.221 42.034C608.425 42.55 608.527 43.141 608.527 43.807C608.527 44.143 608.491 44.371 608.419 44.491C608.347 44.605 608.209 44.662 608.005 44.662H602.29ZM615.83 41.566C615.77 41.662 615.707 41.731 615.641 41.773C615.575 41.809 615.491 41.827 615.389 41.827C615.281 41.827 615.164 41.797 615.038 41.737C614.918 41.677 614.777 41.611 614.615 41.539C614.453 41.461 614.267 41.392 614.057 41.332C613.853 41.272 613.61 41.242 613.328 41.242C612.89 41.242 612.545 41.335 612.293 41.521C612.047 41.707 611.924 41.95 611.924 42.25C611.924 42.448 611.987 42.616 612.113 42.754C612.245 42.886 612.416 43.003 612.626 43.105C612.842 43.207 613.085 43.3 613.355 43.384C613.625 43.462 613.898 43.549 614.174 43.645C614.456 43.741 614.732 43.852 615.002 43.978C615.272 44.098 615.512 44.254 615.722 44.446C615.938 44.632 616.109 44.857 616.235 45.121C616.367 45.385 616.433 45.703 616.433 46.075C616.433 46.519 616.352 46.93 616.19 47.308C616.034 47.68 615.8 48.004 615.488 48.28C615.176 48.55 614.789 48.763 614.327 48.919C613.871 49.069 613.343 49.144 612.743 49.144C612.425 49.144 612.113 49.114 611.807 49.054C611.507 49 611.216 48.922 610.934 48.82C610.658 48.718 610.4 48.598 610.16 48.46C609.926 48.322 609.719 48.172 609.539 48.01L610.052 47.164C610.118 47.062 610.196 46.984 610.286 46.93C610.376 46.876 610.49 46.849 610.628 46.849C610.766 46.849 610.895 46.888 611.015 46.966C611.141 47.044 611.285 47.128 611.447 47.218C611.609 47.308 611.798 47.392 612.014 47.47C612.236 47.548 612.515 47.587 612.851 47.587C613.115 47.587 613.34 47.557 613.526 47.497C613.718 47.431 613.874 47.347 613.994 47.245C614.12 47.143 614.21 47.026 614.264 46.894C614.324 46.756 614.354 46.615 614.354 46.471C614.354 46.255 614.288 46.078 614.156 45.94C614.03 45.802 613.859 45.682 613.643 45.58C613.433 45.478 613.19 45.388 612.914 45.31C612.644 45.226 612.365 45.136 612.077 45.04C611.795 44.944 611.516 44.833 611.24 44.707C610.97 44.575 610.727 44.41 610.511 44.212C610.301 44.014 610.13 43.771 609.998 43.483C609.872 43.195 609.809 42.847 609.809 42.439C609.809 42.061 609.884 41.701 610.034 41.359C610.184 41.017 610.403 40.72 610.691 40.468C610.985 40.21 611.348 40.006 611.78 39.856C612.218 39.7 612.722 39.622 613.292 39.622C613.928 39.622 614.507 39.727 615.029 39.937C615.551 40.147 615.986 40.423 616.334 40.765L615.83 41.566ZM627.421 49H625.198V41.431H620.914V46.435C620.914 46.723 620.983 46.948 621.121 47.11C621.265 47.272 621.46 47.353 621.706 47.353C621.844 47.353 621.958 47.338 622.048 47.308C622.144 47.272 622.225 47.236 622.291 47.2C622.363 47.164 622.426 47.131 622.48 47.101C622.534 47.065 622.588 47.047 622.642 47.047C622.708 47.047 622.762 47.065 622.804 47.101C622.846 47.131 622.891 47.179 622.939 47.245L623.605 48.325C623.281 48.595 622.909 48.799 622.489 48.937C622.069 49.075 621.634 49.144 621.184 49.144C620.38 49.144 619.762 48.919 619.33 48.469C618.904 48.013 618.691 47.386 618.691 46.588V41.431H617.746C617.626 41.431 617.524 41.392 617.44 41.314C617.356 41.236 617.314 41.119 617.314 40.963V40.081L618.799 39.829L619.267 37.318C619.297 37.198 619.354 37.105 619.438 37.039C619.522 36.973 619.63 36.94 619.762 36.94H620.914V39.847H627.421V49ZM627.808 37.039C627.808 37.231 627.769 37.414 627.691 37.588C627.613 37.756 627.508 37.903 627.376 38.029C627.25 38.155 627.097 38.257 626.917 38.335C626.743 38.407 626.557 38.443 626.359 38.443C626.167 38.443 625.987 38.407 625.819 38.335C625.651 38.257 625.504 38.155 625.378 38.029C625.252 37.903 625.15 37.756 625.072 37.588C625 37.414 624.964 37.231 624.964 37.039C624.964 36.841 625 36.658 625.072 36.49C625.15 36.316 625.252 36.166 625.378 36.04C625.504 35.908 625.651 35.806 625.819 35.734C625.987 35.656 626.167 35.617 626.359 35.617C626.557 35.617 626.743 35.656 626.917 35.734C627.097 35.806 627.25 35.908 627.376 36.04C627.508 36.166 627.613 36.316 627.691 36.49C627.769 36.658 627.808 36.841 627.808 37.039ZM631.769 40.9C631.955 40.714 632.15 40.543 632.354 40.387C632.564 40.225 632.783 40.09 633.011 39.982C633.245 39.868 633.494 39.781 633.758 39.721C634.022 39.655 634.31 39.622 634.622 39.622C635.126 39.622 635.573 39.709 635.963 39.883C636.353 40.051 636.677 40.291 636.935 40.603C637.199 40.909 637.397 41.278 637.529 41.71C637.667 42.136 637.736 42.607 637.736 43.123V49H635.513V43.123C635.513 42.559 635.384 42.124 635.126 41.818C634.868 41.506 634.475 41.35 633.947 41.35C633.563 41.35 633.203 41.437 632.867 41.611C632.531 41.785 632.213 42.022 631.913 42.322V49H629.69V39.766H631.049C631.337 39.766 631.526 39.901 631.616 40.171L631.769 40.9ZM643.225 44.158C643.501 44.158 643.741 44.122 643.945 44.05C644.149 43.972 644.317 43.867 644.449 43.735C644.587 43.603 644.689 43.444 644.755 43.258C644.827 43.072 644.863 42.868 644.863 42.646C644.863 42.19 644.725 41.83 644.449 41.566C644.179 41.296 643.771 41.161 643.225 41.161C642.679 41.161 642.268 41.296 641.992 41.566C641.722 41.83 641.587 42.19 641.587 42.646C641.587 42.862 641.62 43.063 641.686 43.249C641.758 43.435 641.86 43.597 641.992 43.735C642.13 43.867 642.301 43.972 642.505 44.05C642.715 44.122 642.955 44.158 643.225 44.158ZM645.736 49.414C645.736 49.234 645.682 49.087 645.574 48.973C645.466 48.859 645.319 48.772 645.133 48.712C644.947 48.646 644.728 48.598 644.476 48.568C644.23 48.538 643.966 48.517 643.684 48.505C643.408 48.487 643.12 48.472 642.82 48.46C642.526 48.448 642.238 48.424 641.956 48.388C641.71 48.526 641.509 48.688 641.353 48.874C641.203 49.06 641.128 49.276 641.128 49.522C641.128 49.684 641.167 49.834 641.245 49.972C641.329 50.116 641.458 50.239 641.632 50.341C641.812 50.443 642.043 50.521 642.325 50.575C642.607 50.635 642.952 50.665 643.36 50.665C643.774 50.665 644.131 50.632 644.431 50.566C644.731 50.506 644.977 50.419 645.169 50.305C645.367 50.197 645.511 50.065 645.601 49.909C645.691 49.759 645.736 49.594 645.736 49.414ZM647.95 40.081V40.909C647.95 41.173 647.791 41.335 647.473 41.395L646.645 41.548C646.771 41.866 646.834 42.214 646.834 42.592C646.834 43.048 646.741 43.462 646.555 43.834C646.375 44.2 646.123 44.512 645.799 44.77C645.475 45.028 645.091 45.229 644.647 45.373C644.209 45.511 643.735 45.58 643.225 45.58C643.045 45.58 642.871 45.571 642.703 45.553C642.535 45.535 642.37 45.511 642.208 45.481C641.92 45.655 641.776 45.85 641.776 46.066C641.776 46.252 641.86 46.39 642.028 46.48C642.202 46.564 642.43 46.624 642.712 46.66C642.994 46.696 643.315 46.72 643.675 46.732C644.035 46.738 644.404 46.756 644.782 46.786C645.16 46.816 645.529 46.87 645.889 46.948C646.249 47.02 646.57 47.137 646.852 47.299C647.134 47.461 647.359 47.683 647.527 47.965C647.701 48.241 647.788 48.598 647.788 49.036C647.788 49.444 647.686 49.84 647.482 50.224C647.284 50.608 646.993 50.95 646.609 51.25C646.231 51.55 645.763 51.79 645.205 51.97C644.653 52.156 644.023 52.249 643.315 52.249C642.619 52.249 642.013 52.18 641.497 52.042C640.981 51.91 640.552 51.73 640.21 51.502C639.868 51.28 639.613 51.022 639.445 50.728C639.277 50.434 639.193 50.128 639.193 49.81C639.193 49.378 639.322 49.018 639.58 48.73C639.844 48.436 640.204 48.202 640.66 48.028C640.414 47.902 640.219 47.734 640.075 47.524C639.931 47.314 639.859 47.038 639.859 46.696C639.859 46.558 639.883 46.417 639.931 46.273C639.985 46.123 640.06 45.976 640.156 45.832C640.258 45.688 640.384 45.553 640.534 45.427C640.684 45.295 640.861 45.178 641.065 45.076C640.597 44.824 640.228 44.488 639.958 44.068C639.694 43.648 639.562 43.156 639.562 42.592C639.562 42.136 639.652 41.725 639.832 41.359C640.018 40.987 640.273 40.672 640.597 40.414C640.927 40.15 641.314 39.949 641.758 39.811C642.208 39.673 642.697 39.604 643.225 39.604C643.621 39.604 643.993 39.646 644.341 39.73C644.689 39.808 645.007 39.925 645.295 40.081H647.95ZM651.844 35.986V41.134C651.844 41.68 651.817 42.217 651.763 42.745C651.709 43.267 651.64 43.822 651.556 44.41H650.044C649.96 43.822 649.891 43.267 649.837 42.745C649.783 42.217 649.756 41.68 649.756 41.134V35.986H651.844ZM649.405 47.776C649.405 47.59 649.438 47.413 649.504 47.245C649.576 47.077 649.672 46.933 649.792 46.813C649.918 46.693 650.065 46.597 650.233 46.525C650.401 46.453 650.581 46.417 650.773 46.417C650.959 46.417 651.136 46.453 651.304 46.525C651.472 46.597 651.616 46.693 651.736 46.813C651.862 46.933 651.961 47.077 652.033 47.245C652.105 47.413 652.141 47.59 652.141 47.776C652.141 47.968 652.105 48.148 652.033 48.316C651.961 48.478 651.862 48.619 651.736 48.739C651.616 48.859 651.472 48.952 651.304 49.018C651.136 49.09 650.959 49.126 650.773 49.126C650.581 49.126 650.401 49.09 650.233 49.018C650.065 48.952 649.918 48.859 649.792 48.739C649.672 48.619 649.576 48.478 649.504 48.316C649.438 48.148 649.405 47.968 649.405 47.776Z" fill="#2ECC71"/>
<g id="Group 8832">
<line id="Line 19" x1="9.5" y1="11" x2="9.5" y2="34" stroke="white"/>
<line id="Line 20" x1="9" y1="10.5" x2="40" y2="10.5" stroke="white"/>
</g>
<g id="Group 8833">
<line id="Line 19_2" x1="994.5" y1="79" x2="994.5" y2="56" stroke="#FDFFFE"/>
<line id="Line 20_2" x1="995" y1="79.5" x2="964" y2="79.5" stroke="#FDFFFE"/>
</g>
</g>
</svg>
