<svg width="16" height="16" viewBox="0 0 12 12" fill="none" xmlns="http://www.w3.org/2000/svg">
<path d="M6 0C2.69194 0 0 2.69194 0 6C0 9.30806 2.69194 12 6 12C9.30806 12 12 9.30806 12 6C12 2.69194 9.30806 0 6 0ZM6 0.959914C8.78923 0.959914 11.04 3.21077 11.04 5.99991C11.04 8.78897 8.78914 11.0399 6 11.0399C3.21086 11.0399 0.96 8.78906 0.96 5.99991C0.96 3.21077 3.21086 0.959914 6 0.959914ZM6 2.15991C5.73482 2.15991 5.52004 2.37487 5.52004 2.63987V5.99979C5.52004 6.17724 5.61681 6.32925 5.76011 6.41229C5.77735 6.42233 5.7941 6.43438 5.81268 6.44225L8.25772 7.85217C8.48724 7.98476 8.77771 7.90925 8.91031 7.67974C9.0429 7.45021 8.96739 7.15975 8.73788 7.02715L6.47999 5.72236V2.63999C6.47999 2.37481 6.26504 2.16004 6.00003 2.16004L6 2.15991Z" fill="#787A92"/>
</svg>
