<svg width="16" height="16" viewBox="0 0 16 16" fill="none" xmlns="http://www.w3.org/2000/svg">
<rect x="0.5" y="0.5" width="15" height="15" rx="2.5" fill="white" stroke="#5C5E7A"/>
<path d="M8.48985 7.98349L10.9198 5.55349C10.9745 5.48972 11.003 5.40769 10.9998 5.3238C10.9965 5.23991 10.9617 5.16033 10.9024 5.10096C10.843 5.0416 10.7634 5.00682 10.6795 5.00358C10.5956 5.00034 10.5136 5.02888 10.4498 5.08349L8.01985 7.51349L5.58985 5.08015C5.52608 5.02554 5.44406 4.99701 5.36016 5.00025C5.27627 5.00349 5.19669 5.03827 5.13733 5.09763C5.07796 5.157 5.04318 5.23658 5.03994 5.32047C5.0367 5.40436 5.06524 5.48638 5.11985 5.55015L7.54985 7.98349L5.11651 10.4135C5.08162 10.4434 5.05328 10.4801 5.03327 10.5215C5.01327 10.5629 5.00202 10.6079 5.00025 10.6538C4.99848 10.6997 5.00621 10.7455 5.02297 10.7883C5.03973 10.831 5.06515 10.8699 5.09763 10.9024C5.13012 10.9349 5.16897 10.9603 5.21174 10.977C5.25452 10.9938 5.30029 11.0015 5.3462 10.9998C5.39211 10.998 5.43715 10.9867 5.4785 10.9667C5.51986 10.9467 5.55663 10.9184 5.58651 10.8835L8.01985 8.45349L10.4498 10.8835C10.5136 10.9381 10.5956 10.9666 10.6795 10.9634C10.7634 10.9601 10.843 10.9254 10.9024 10.866C10.9617 10.8066 10.9965 10.7271 10.9998 10.6432C11.003 10.5593 10.9745 10.4773 10.9198 10.4135L8.48985 7.98349Z" fill="#3D3F5E"/>
</svg>
