<svg width="20" height="20" viewBox="0 0 20 20" fill="none" xmlns="http://www.w3.org/2000/svg">
<path d="M10 0C4.4775 0 0 4.4775 0 10C0 15.5225 4.4775 20 10 20C15.5225 20 20 15.5225 20 10C20 4.4775 15.5225 0 10 0ZM8.84446 14.3164V9.73857V9.73871C8.84446 9.32589 9.06475 8.94435 9.42218 8.73789C9.77975 8.53156 10.2203 8.53156 10.5779 8.73789C10.9353 8.94436 11.1556 9.32593 11.1556 9.73871V14.3166V14.3164C11.1556 14.7294 10.9353 15.1108 10.5779 15.3173C10.2203 15.5236 9.77972 15.5236 9.42218 15.3173C9.06475 15.1108 8.84446 14.7294 8.84446 14.3164ZM10 7.32214V7.32228C9.63171 7.32228 9.27832 7.17594 9.01786 6.91546C8.75739 6.655 8.61104 6.30175 8.61104 5.93332C8.61104 5.56503 8.75738 5.21178 9.01786 4.95118C9.27832 4.69071 9.63171 4.5445 10 4.5445C10.3683 4.5445 10.7217 4.6907 10.9821 4.95118C11.2426 5.21178 11.389 5.56503 11.389 5.93332C11.389 6.30175 11.2426 6.655 10.9821 6.91546C10.7217 7.17593 10.3683 7.32228 10 7.32228V7.32214Z" fill="#9FA0B1"/>
</svg>
