<svg width="16" height="16" viewBox="0 0 16 16" fill="none" xmlns="http://www.w3.org/2000/svg">
<path fill-rule="evenodd" clip-rule="evenodd" d="M0 2.66674C0 1.19394 1.19394 0 2.66674 0H13.3333C14.8061 0 16 1.19394 16 2.66674V13.3333C16 14.8061 14.8061 16 13.3333 16H2.66674C1.19394 16 0 14.8061 0 13.3333V2.66674ZM7.33328 5.26415C7.33328 6.00063 6.73631 6.59759 5.99998 6.59759C5.26365 6.59759 4.66668 6.00063 4.66668 5.26415C4.66668 4.52783 5.26365 3.93086 5.99998 3.93086C6.73631 3.93086 7.33328 4.52783 7.33328 5.26415ZM2.90574 10.7635L3.81325 9.52226C4.43072 8.67769 5.5948 8.45165 6.48334 9.00397L7.11939 9.39905C7.2335 9.47006 7.38264 9.44495 7.46732 9.34046L8.59819 7.94451C9.46706 6.87197 11.1356 6.98118 11.8573 8.15797L13.1369 10.2446C13.2654 10.4545 13.3334 10.6957 13.3334 10.9416V11.4026C13.3334 12.139 12.7366 12.7359 12.0001 12.7359H3.90722C3.22207 12.7359 2.66685 12.1806 2.66685 11.4955C2.66685 11.2324 2.75056 10.9761 2.90583 10.7635H2.90574Z" fill="#BBBCC6"/>
</svg>
