<svg width="16" height="16" viewBox="0 0 16 16" fill="none" xmlns="http://www.w3.org/2000/svg">
<rect x="0.75" y="0.75" width="14.5" height="14.5" rx="1.25" stroke="#5C5E7A" stroke-width="1.5"/>
<rect x="3.23712" y="4" width="1.57225" height="1.20231" rx="0.601156" fill="#5C5E7A"/>
<path d="M5.91919 4.60116C5.91919 4.26915 6.18834 4 6.52035 4H12.1943C12.5263 4 12.7955 4.26915 12.7955 4.60116C12.7955 4.93317 12.5263 5.20231 12.1943 5.20231H6.52035C6.18834 5.20231 5.91919 4.93317 5.91919 4.60116Z" fill="#5C5E7A"/>
<path d="M5.91919 7.83816C5.91919 7.50615 6.18834 7.237 6.52035 7.237H12.1943C12.5263 7.237 12.7955 7.50615 12.7955 7.83816C12.7955 8.17017 12.5263 8.43931 12.1943 8.43931H6.52035C6.18834 8.43931 5.91919 8.17017 5.91919 7.83816Z" fill="#5C5E7A"/>
<path d="M5.91919 10.8902C5.91919 10.5582 6.18834 10.2891 6.52035 10.2891H12.1943C12.5263 10.2891 12.7955 10.5582 12.7955 10.8902C12.7955 11.2222 12.5263 11.4914 12.1943 11.4914H6.52035C6.18834 11.4914 5.91919 11.2222 5.91919 10.8902Z" fill="#5C5E7A"/>
<rect x="3.23718" y="7.237" width="1.57225" height="1.20231" rx="0.601156" fill="#5C5E7A"/>
<rect x="3.23718" y="10.3815" width="1.57225" height="1.10983" rx="0.554913" fill="#5C5E7A"/>
</svg>
