<svg width="16" height="18" viewBox="0 0 16 18" fill="none" xmlns="http://www.w3.org/2000/svg">
<path d="M12.8541 13.0664H15.7299L11.4839 17.3028L11.4837 14.4367C11.4851 14.0737 11.6298 13.7259 11.8866 13.4693C12.1433 13.2125 12.4911 13.0677 12.8541 13.0664L12.8541 13.0664ZM16 2.32585V12.1013H12.8541C12.2348 12.1019 11.6413 12.3481 11.2034 12.7859C10.7655 13.2238 10.5193 13.8175 10.5188 14.4366V17.5825H2.32568C1.70893 17.5824 1.11756 17.3372 0.681368 16.9012C0.245346 16.4651 0.000172324 15.8736 0 15.2569V2.32568C0.000168274 1.70893 0.245359 1.11739 0.681368 0.681368C1.11756 0.245346 1.70893 0.000172324 2.32568 0H13.6741C14.2908 0.000168274 14.8822 0.245359 15.3184 0.681368C15.7544 1.11739 15.9996 1.70893 15.9997 2.32568L16 2.32585ZM5.76139 7.93241C5.76374 7.57346 5.62221 7.22846 5.36827 6.97455C5.11433 6.72077 4.76936 6.57908 4.41041 6.58143H3.11729C2.85073 6.58143 2.63483 6.79751 2.63483 7.06389V10.5188C2.63483 10.6467 2.68565 10.7693 2.77619 10.8599C2.86656 10.9504 2.9894 11.0012 3.1173 11.0012C3.38201 10.997 3.59572 10.7835 3.59977 10.5188V9.27383H4.41038C4.76697 9.27383 5.10928 9.1328 5.36238 8.88155C5.61548 8.6303 5.75886 8.28919 5.76138 7.93244L5.76139 7.93241ZM9.56362 7.92281C9.56429 7.56689 9.42327 7.22529 9.17152 6.97353C8.91976 6.72176 8.57816 6.58075 8.22223 6.58142H6.91938C6.65298 6.58142 6.43691 6.7975 6.43691 7.06388V10.5188C6.43691 10.6467 6.48773 10.7693 6.57827 10.8599C6.66881 10.9504 6.79149 11.0012 6.91938 11.0012H8.22224C8.57816 11.0019 8.91976 10.8609 9.17153 10.6091C9.42329 10.3574 9.5643 10.0158 9.56363 9.65984L9.56362 7.92281ZM13.3948 7.06387H13.3946C13.3946 6.93597 13.3438 6.81329 13.2535 6.72275C13.1629 6.63221 13.0402 6.58139 12.9122 6.58139H10.741C10.4744 6.58139 10.2583 6.79747 10.2583 7.06386V10.5187C10.2583 10.7851 10.4744 11.0012 10.741 11.0012C11.0074 11.0012 11.2234 10.7851 11.2234 10.5187V9.27378H12.3429C12.6093 9.27378 12.8253 9.05787 12.8253 8.79132C12.8253 8.52476 12.6092 8.30885 12.3429 8.30885H11.2234V7.54654H12.9122C13.1769 7.54233 13.3906 7.32877 13.3946 7.0639L13.3948 7.06387ZM4.41071 7.54633L3.59993 7.5465V8.30881H4.41054C4.62006 8.30881 4.79137 8.14188 4.79658 7.93236C4.79945 7.8292 4.75973 7.72924 4.68669 7.6562C4.61366 7.58317 4.51387 7.54345 4.41054 7.54648L4.41071 7.54633ZM8.22251 7.54633H7.4023V10.0361H8.22251H8.22235C8.42799 10.0311 8.59358 9.86547 8.59863 9.65982V7.9228C8.59358 7.71715 8.42799 7.55156 8.22235 7.54651L8.22251 7.54633Z" fill="#DC1D00"/>
</svg>
