<svg width="16" height="13" viewBox="0 0 16 13" fill="none" xmlns="http://www.w3.org/2000/svg">
<path fill-rule="evenodd" clip-rule="evenodd" d="M11.9341 1.06075C11.7967 0.219505 10.9587 0 10.5214 0H1.49416C0.348638 0.0498055 0.0207523 1.05837 0 1.55642V8.15564C0 8.55223 0.246709 8.8419 0.555958 9.04309C0.728132 9.1551 0.919692 9.23968 1.09885 9.30001C1.24451 9.34906 1.38197 9.38208 1.49416 9.40078C1.8179 8.13074 3.74578 7.10765 4.66926 6.75486C7.93152 5.80856 9.92996 8.12451 10.5214 9.40078C11.5974 9.18981 11.9152 8.66606 11.9557 8.32164C11.963 8.25951 11.9612 8.20321 11.9533 8.15564V7.15953L12.9533 7.74882L15.4397 9.21401C15.8132 9.53774 15.9689 9.07912 16 8.80934V8.5675V8.39821V8.38348V0.404669C15.9004 -0.0186771 15.585 0.0622568 15.4397 0.155642L15.0171 0.404669L15 0.414744L12.9533 1.62083L11.9533 2.21012V1.30739C11.9533 1.21978 11.9466 1.13766 11.9341 1.06075ZM15 1.57546L12.461 3.07166L10.9533 3.96012V2.21012V1.30739C10.9533 1.20395 10.9314 1.16328 10.9261 1.15378C10.9189 1.14118 10.9044 1.12169 10.867 1.09709C10.8263 1.07035 10.7674 1.04394 10.6941 1.02482C10.6202 1.00554 10.5558 1 10.5214 1H1.51969C1.39362 1.00783 1.3193 1.03805 1.27491 1.06331C1.22596 1.09116 1.18163 1.13138 1.14054 1.18923C1.05045 1.31605 1.00743 1.48482 1 1.58339V8.12359C1.00344 8.12734 1.00766 8.13168 1.01273 8.13656C1.37249 7.63342 1.84866 7.22706 2.27304 6.92193C2.99302 6.40427 3.78524 6.02209 4.31239 5.82071L4.35099 5.80596L4.39067 5.79445C6.31976 5.23487 7.92888 5.63916 9.13116 6.39904C9.92349 6.89983 10.5309 7.54797 10.9533 8.1584V8.15564V7.15953V5.40953L12.461 6.298L15 7.79419V1.57546ZM3.0169 9.99556C3.80392 11.3789 5.25049 11.7349 5.89286 11.7317C7.42496 11.6768 8.4175 10.6382 8.83498 9.93793C8.68075 9.52047 8.36825 9.18238 7.95199 8.90904C7.44002 8.57284 6.85346 8.39411 6.49357 8.33709C5.22802 8.18633 4.3966 8.52834 3.85641 8.951C3.44002 9.27679 3.1694 9.67273 3.0169 9.99556ZM6.63008 7.3463C3.56704 6.97276 2.22022 8.99611 1.92969 10.0545C2.87599 12.221 4.98027 12.7419 5.91412 12.7315C8.20517 12.6568 9.52502 10.9157 9.89856 10.0545C9.57482 8.23658 7.58468 7.49157 6.63008 7.3463ZM6.34611 9.97665C6.34611 10.155 6.20152 10.2996 6.02315 10.2996C5.84479 10.2996 5.7002 10.155 5.7002 9.97665C5.7002 9.79829 5.84479 9.6537 6.02315 9.6537C6.20152 9.6537 6.34611 9.79829 6.34611 9.97665ZM7.34611 9.97665C7.34611 10.7073 6.7538 11.2996 6.02315 11.2996C5.2925 11.2996 4.7002 10.7073 4.7002 9.97665C4.7002 9.246 5.2925 8.6537 6.02315 8.6537C6.7538 8.6537 7.34611 9.246 7.34611 9.97665Z" fill="white"/>
</svg>
