<svg width="15" height="15" viewBox="0 0 15 15" fill="none" xmlns="http://www.w3.org/2000/svg">
<path d="M8.29562 7.23942L11.0392 4.49587C11.1008 4.42388 11.133 4.33127 11.1294 4.23655C11.1257 4.14184 11.0865 4.05199 11.0194 3.98496C10.9524 3.91794 10.8626 3.87867 10.7678 3.87502C10.6731 3.87136 10.5805 3.90357 10.5085 3.96523L7.76497 6.70878L5.02143 3.96147C4.94943 3.89981 4.85682 3.86759 4.7621 3.87125C4.66739 3.87491 4.57754 3.91418 4.51052 3.9812C4.44349 4.04823 4.40423 4.13807 4.40057 4.23279C4.39691 4.32751 4.42913 4.42012 4.49078 4.49211L7.23433 7.23942L4.48702 9.98297C4.44762 10.0167 4.41562 10.0582 4.39303 10.1049C4.37045 10.1516 4.35775 10.2025 4.35575 10.2543C4.35375 10.3061 4.36248 10.3578 4.3814 10.4061C4.40032 10.4544 4.42902 10.4983 4.4657 10.5349C4.50237 10.5716 4.54624 10.6003 4.59453 10.6192C4.64282 10.6382 4.69451 10.6469 4.74634 10.6449C4.79817 10.6429 4.84902 10.6302 4.89572 10.6076C4.94241 10.585 4.98392 10.553 5.01766 10.5136L7.76497 7.77007L10.5085 10.5136C10.5805 10.5753 10.6731 10.6075 10.7678 10.6038C10.8626 10.6002 10.9524 10.5609 11.0194 10.4939C11.0865 10.4269 11.1257 10.337 11.1294 10.2423C11.133 10.1476 11.1008 10.055 11.0392 9.98297L8.29562 7.23942Z" fill="#7B7FAC"/>
<rect x="0.5" y="0.5" width="14" height="14" rx="3.5" stroke="#7B7FAC"/>
</svg>
