<svg width="14" height="14" viewBox="0 0 14 14" fill="none" xmlns="http://www.w3.org/2000/svg">
<mask id="path-1-inside-1_7104_1319" fill="white">
<path fill-rule="evenodd" clip-rule="evenodd" d="M13 7C13 10.3137 10.3137 13 7 13C3.68629 13 1 10.3137 1 7C1 3.68629 3.68629 1 7 1C10.3137 1 13 3.68629 13 7ZM14 7C14 10.866 10.866 14 7 14C3.13401 14 0 10.866 0 7C0 3.13401 3.13401 0 7 0C10.866 0 14 3.13401 14 7ZM5 4L10 7.125L5 10.25V4Z"/>
</mask>
<path fill-rule="evenodd" clip-rule="evenodd" d="M13 7C13 10.3137 10.3137 13 7 13C3.68629 13 1 10.3137 1 7C1 3.68629 3.68629 1 7 1C10.3137 1 13 3.68629 13 7ZM14 7C14 10.866 10.866 14 7 14C3.13401 14 0 10.866 0 7C0 3.13401 3.13401 0 7 0C10.866 0 14 3.13401 14 7ZM5 4L10 7.125L5 10.25V4Z" fill="white"/>
<path d="M10 7.125L10.53 7.973L11.8868 7.125L10.53 6.277L10 7.125ZM5 4L5.53 3.152L4 2.19575V4H5ZM5 10.25H4V12.0542L5.53 11.098L5 10.25ZM7 14C10.866 14 14 10.866 14 7H12C12 9.76142 9.76142 12 7 12V14ZM0 7C0 10.866 3.13401 14 7 14V12C4.23858 12 2 9.76142 2 7H0ZM7 0C3.13401 0 0 3.13401 0 7H2C2 4.23858 4.23858 2 7 2V0ZM14 7C14 3.13401 10.866 0 7 0V2C9.76142 2 12 4.23858 12 7H14ZM7 15C11.4183 15 15 11.4183 15 7H13C13 10.3137 10.3137 13 7 13V15ZM-1 7C-1 11.4183 2.58172 15 7 15V13C3.68629 13 1 10.3137 1 7H-1ZM7 -1C2.58172 -1 -1 2.58172 -1 7H1C1 3.68629 3.68629 1 7 1V-1ZM15 7C15 2.58172 11.4183 -1 7 -1V1C10.3137 1 13 3.68629 13 7H15ZM10.53 6.277L5.53 3.152L4.47 4.848L9.47 7.973L10.53 6.277ZM5.53 11.098L10.53 7.973L9.47 6.277L4.47 9.402L5.53 11.098ZM4 4V10.25H6V4H4Z" fill="white" mask="url(#path-1-inside-1_7104_1319)"/>
</svg>
