<svg width="16" height="18" viewBox="0 0 16 18" fill="none" xmlns="http://www.w3.org/2000/svg">
<path fill-rule="evenodd" clip-rule="evenodd" d="M12.8541 13.0664H15.7299L11.4839 17.3028L11.4837 14.4367C11.4851 14.0737 11.6298 13.7259 11.8866 13.4693C12.1433 13.2125 12.4911 13.0677 12.8541 13.0664ZM16 2.32585V12.1013H12.8541C12.2348 12.1019 11.6413 12.3481 11.2034 12.7859C10.7655 13.2238 10.5193 13.8175 10.5188 14.4366V17.5825H2.32568C1.70893 17.5824 1.11756 17.3372 0.681368 16.9012C0.245346 16.4651 0.000171847 15.8736 0 15.2569V2.32568C0.000167797 1.70893 0.245359 1.11739 0.681368 0.681368C1.11756 0.245346 1.70893 0.000172324 2.32568 0H13.6741C14.2908 0.000168274 14.8822 0.245359 15.3184 0.681368C15.7544 1.11739 15.9998 1.70911 16 2.32585ZM3.78906 4.94971V9H2.58936V4.94971H1.12646V4.02344H2.58936H3.78906H5.28613V4.94971H3.78906ZM6.83789 4.02344L7.65137 5.67773L8.46484 4.02344H9.83203L8.44434 6.49121L9.86963 9H8.48877L7.65137 7.31494L6.81396 9H5.42969L6.8584 6.49121L5.46729 4.02344H6.83789ZM12.6758 9V4.94971H14.1729V4.02344H12.6758H11.4761H10.0132V4.94971H11.4761V9H12.6758Z" fill="#2FBBE8"/>
</svg>
