<svg width="16" height="18" viewBox="0 0 16 18" fill="none" xmlns="http://www.w3.org/2000/svg">
<path fill-rule="evenodd" clip-rule="evenodd" d="M12.8541 13.0664H15.7299L11.4839 17.3028L11.4837 14.4367C11.4851 14.0737 11.6298 13.7259 11.8866 13.4693C12.1433 13.2125 12.4911 13.0677 12.8541 13.0664ZM16 2.32585V12.1013H12.8541C12.2348 12.1019 11.6413 12.3481 11.2034 12.7859C10.7655 13.2238 10.5193 13.8175 10.5188 14.4366V17.5825H2.32568C1.70893 17.5824 1.11756 17.3372 0.681368 16.9012C0.245346 16.4651 0.000171847 15.8736 0 15.2569V2.32568C0.000167797 1.70893 0.245359 1.11739 0.681368 0.681368C1.11756 0.245346 1.70893 0.000172324 2.32568 0H13.6741C14.2908 0.000168274 14.8822 0.245359 15.3184 0.681368C15.7544 1.11739 15.9998 1.70911 16 2.32585ZM6.62109 9.3657V10.2798H3.10938H2.58984H2.28516V9.60789L5.12862 5.51023H2.28906V4.59226H5.76562H6.16016H6.5625V5.24461L3.73624 9.3657H6.62109ZM8.61328 4.59226V10.2798H7.44531V4.59226H8.61328ZM10.8828 8.25242H11.9258C12.3711 8.25242 12.7526 8.1795 13.0703 8.03367C13.3906 7.88784 13.6354 7.6808 13.8047 7.41257C13.974 7.14435 14.0586 6.82664 14.0586 6.45945C14.0586 6.09747 13.974 5.77586 13.8047 5.49461C13.6354 5.21336 13.3906 4.9933 13.0703 4.83445C12.7526 4.67299 12.3711 4.59226 11.9258 4.59226H9.71094V10.2798H10.8828V8.25242ZM10.8828 7.33836V5.51023H11.9258C12.1497 5.51023 12.332 5.5545 12.4727 5.64304C12.6133 5.73159 12.7161 5.84877 12.7812 5.99461C12.8464 6.14044 12.8789 6.29799 12.8789 6.46726C12.8789 6.63393 12.8464 6.78367 12.7812 6.91648C12.7161 7.04929 12.6133 7.15346 12.4727 7.22898C12.332 7.3019 12.1497 7.33836 11.9258 7.33836H10.8828Z" fill="#F39C12"/>
</svg>
